<svg class="rich-terminal" viewBox="0 0 994 342.79999999999995" xmlns="http://www.w3.org/2000/svg">
    <!-- Generated with Rich https://www.textualize.io -->
    <style>

    @font-face {
        font-family: "Fira Code";
        src: local("FiraCode-Regular"),
                url("https://cdnjs.cloudflare.com/ajax/libs/firacode/6.2.0/woff2/FiraCode-Regular.woff2") format("woff2"),
                url("https://cdnjs.cloudflare.com/ajax/libs/firacode/6.2.0/woff/FiraCode-Regular.woff") format("woff");
        font-style: normal;
        font-weight: 400;
    }
    @font-face {
        font-family: "Fira Code";
        src: local("FiraCode-Bold"),
                url("https://cdnjs.cloudflare.com/ajax/libs/firacode/6.2.0/woff2/FiraCode-Bold.woff2") format("woff2"),
                url("https://cdnjs.cloudflare.com/ajax/libs/firacode/6.2.0/woff/FiraCode-Bold.woff") format("woff");
        font-style: bold;
        font-weight: 700;
    }

    .terminal-3303646997-matrix {
        font-family: Fira Code, monospace;
        font-size: 20px;
        line-height: 24.4px;
        font-variant-east-asian: full-width;
    }

    .terminal-3303646997-title {
        font-size: 18px;
        font-weight: bold;
        font-family: arial;
    }

    .terminal-3303646997-r1 { fill: #c5c8c6 }
.terminal-3303646997-r2 { fill: #7a3b22 }
.terminal-3303646997-r3 { fill: #c8372d;font-weight: bold }
.terminal-3303646997-r4 { fill: #121212 }
.terminal-3303646997-r5 { fill: #e0e0e0 }
.terminal-3303646997-r6 { fill: #d9a441 }
.terminal-3303646997-r7 { fill: #c9773b }
.terminal-3303646997-r8 { fill: #7f9a4b }
.terminal-3303646997-r9 { fill: #8a7357 }
    </style>

    <defs>
    <clipPath id="terminal-3303646997-clip-terminal">
      <rect x="0" y="0" width="975.0" height="291.79999999999995" />
    </clipPath>
    <clipPath id="terminal-3303646997-line-0">
    <rect x="0" y="1.5" width="976" height="24.65"/>
            </clipPath>
<clipPath id="terminal-3303646997-line-1">
    <rect x="0" y="25.9" width="976" height="24.65"/>
            </clipPath>
<clipPath id="terminal-3303646997-line-2">
    <rect x="0" y="50.3" width="976" height="24.65"/>
            </clipPath>
<clipPath id="terminal-3303646997-line-3">
    <rect x="0" y="74.7" width="976" height="24.65"/>
            </clipPath>
<clipPath id="terminal-3303646997-line-4">
    <rect x="0" y="99.1" width="976" height="24.65"/>
            </clipPath>
<clipPath id="terminal-3303646997-line-5">
    <rect x="0" y="123.5" width="976" height="24.65"/>
            </clipPath>
<clipPath id="terminal-3303646997-line-6">
    <rect x="0" y="147.9" width="976" height="24.65"/>
            </clipPath>
<clipPath id="terminal-3303646997-line-7">
    <rect x="0" y="172.3" width="976" height="24.65"/>
            </clipPath>
<clipPath id="terminal-3303646997-line-8">
    <rect x="0" y="196.7" width="976" height="24.65"/>
            </clipPath>
<clipPath id="terminal-3303646997-line-9">
    <rect x="0" y="221.1" width="976" height="24.65"/>
            </clipPath>
<clipPath id="terminal-3303646997-line-10">
    <rect x="0" y="245.5" width="976" height="24.65"/>
            </clipPath>
    </defs>

    <rect fill="#292929" stroke="rgba(255,255,255,0.35)" stroke-width="1" x="1" y="1" width="992" height="340.8" rx="8"/><text class="terminal-3303646997-title" fill="#c5c8c6" text-anchor="middle" x="496" y="27">halo&#160;--&#160;doom-hud-width-medium</text>
            <g transform="translate(26,22)">
            <circle cx="0" cy="0" r="7" fill="#ff5f57"/>
            <circle cx="22" cy="0" r="7" fill="#febc2e"/>
            <circle cx="44" cy="0" r="7" fill="#28c840"/>
            </g>
        
    <g transform="translate(9, 41)" clip-path="url(#terminal-3303646997-clip-terminal)">
    <rect fill="#12100e" x="0" y="1.5" width="976" height="24.65" shape-rendering="crispEdges"/><rect fill="#12100e" x="0" y="25.9" width="976" height="24.65" shape-rendering="crispEdges"/><rect fill="#12100e" x="0" y="50.3" width="976" height="24.65" shape-rendering="crispEdges"/><rect fill="#12100e" x="0" y="74.7" width="976" height="24.65" shape-rendering="crispEdges"/><rect fill="#12100e" x="0" y="99.1" width="976" height="24.65" shape-rendering="crispEdges"/><rect fill="#12100e" x="0" y="123.5" width="976" height="24.65" shape-rendering="crispEdges"/><rect fill="#12100e" x="0" y="147.9" width="976" height="24.65" shape-rendering="crispEdges"/><rect fill="#1b1815" x="0" y="172.3" width="976" height="24.65" shape-rendering="crispEdges"/><rect fill="#1b1815" x="0" y="196.7" width="12.2" height="24.65" shape-rendering="crispEdges"/><rect fill="#1b1815" x="12.2" y="196.7" width="12.2" height="24.65" shape-rendering="crispEdges"/><rect fill="#1b1815" x="24.4" y="196.7" width="12.2" height="24.65" shape-rendering="crispEdges"/><rect fill="#e0e0e0" x="36.6" y="196.7" width="12.2" height="24.65" shape-rendering="crispEdges"/><rect fill="#23211e" x="48.8" y="196.7" width="915" height="24.65" shape-rendering="crispEdges"/><rect fill="#1b1815" x="963.8" y="196.7" width="12.2" height="24.65" shape-rendering="crispEdges"/><rect fill="#241f1a" x="0" y="221.1" width="12.2" height="24.65" shape-rendering="crispEdges"/><rect fill="#241f1a" x="12.2" y="221.1" width="24.4" height="24.65" shape-rendering="crispEdges"/><rect fill="#241f1a" x="36.6" y="221.1" width="48.8" height="24.65" shape-rendering="crispEdges"/><rect fill="#241f1a" x="85.4" y="221.1" width="85.4" height="24.65" shape-rendering="crispEdges"/><rect fill="#241f1a" x="170.8" y="221.1" width="12.2" height="24.65" shape-rendering="crispEdges"/><rect fill="#241f1a" x="183" y="221.1" width="24.4" height="24.65" shape-rendering="crispEdges"/><rect fill="#241f1a" x="207.4" y="221.1" width="73.2" height="24.65" shape-rendering="crispEdges"/><rect fill="#241f1a" x="280.6" y="221.1" width="48.8" height="24.65" shape-rendering="crispEdges"/><rect fill="#241f1a" x="329.4" y="221.1" width="12.2" height="24.65" shape-rendering="crispEdges"/><rect fill="#241f1a" x="341.6" y="221.1" width="24.4" height="24.65" shape-rendering="crispEdges"/><rect fill="#241f1a" x="366" y="221.1" width="48.8" height="24.65" shape-rendering="crispEdges"/><rect fill="#241f1a" x="414.8" y="221.1" width="73.2" height="24.65" shape-rendering="crispEdges"/><rect fill="#241f1a" x="488" y="221.1" width="12.2" height="24.65" shape-rendering="crispEdges"/><rect fill="#241f1a" x="500.2" y="221.1" width="109.8" height="24.65" shape-rendering="crispEdges"/><rect fill="#241f1a" x="610" y="221.1" width="12.2" height="24.65" shape-rendering="crispEdges"/><rect fill="#241f1a" x="622.2" y="221.1" width="24.4" height="24.65" shape-rendering="crispEdges"/><rect fill="#241f1a" x="646.6" y="221.1" width="61" height="24.65" shape-rendering="crispEdges"/><rect fill="#241f1a" x="707.6" y="221.1" width="134.2" height="24.65" shape-rendering="crispEdges"/><rect fill="#241f1a" x="841.8" y="221.1" width="12.2" height="24.65" shape-rendering="crispEdges"/><rect fill="#241f1a" x="854" y="221.1" width="24.4" height="24.65" shape-rendering="crispEdges"/><rect fill="#241f1a" x="878.4" y="221.1" width="48.8" height="24.65" shape-rendering="crispEdges"/><rect fill="#241f1a" x="927.2" y="221.1" width="36.6" height="24.65" shape-rendering="crispEdges"/><rect fill="#241f1a" x="963.8" y="221.1" width="12.2" height="24.65" shape-rendering="crispEdges"/><rect fill="#241f1a" x="0" y="245.5" width="12.2" height="24.65" shape-rendering="crispEdges"/><rect fill="#241f1a" x="12.2" y="245.5" width="12.2" height="24.65" shape-rendering="crispEdges"/><rect fill="#241f1a" x="24.4" y="245.5" width="24.4" height="24.65" shape-rendering="crispEdges"/><rect fill="#241f1a" x="48.8" y="245.5" width="109.8" height="24.65" shape-rendering="crispEdges"/><rect fill="#241f1a" x="158.6" y="245.5" width="12.2" height="24.65" shape-rendering="crispEdges"/><rect fill="#241f1a" x="170.8" y="245.5" width="12.2" height="24.65" shape-rendering="crispEdges"/><rect fill="#241f1a" x="183" y="245.5" width="12.2" height="24.65" shape-rendering="crispEdges"/><rect fill="#241f1a" x="195.2" y="245.5" width="85.4" height="24.65" shape-rendering="crispEdges"/><rect fill="#241f1a" x="280.6" y="245.5" width="36.6" height="24.65" shape-rendering="crispEdges"/><rect fill="#241f1a" x="317.2" y="245.5" width="12.2" height="24.65" shape-rendering="crispEdges"/><rect fill="#241f1a" x="329.4" y="245.5" width="12.2" height="24.65" shape-rendering="crispEdges"/><rect fill="#241f1a" x="341.6" y="245.5" width="12.2" height="24.65" shape-rendering="crispEdges"/><rect fill="#241f1a" x="353.8" y="245.5" width="24.4" height="24.65" shape-rendering="crispEdges"/><rect fill="#241f1a" x="378.2" y="245.5" width="97.6" height="24.65" shape-rendering="crispEdges"/><rect fill="#241f1a" x="475.8" y="245.5" width="12.2" height="24.65" shape-rendering="crispEdges"/><rect fill="#241f1a" x="488" y="245.5" width="12.2" height="24.65" shape-rendering="crispEdges"/><rect fill="#241f1a" x="500.2" y="245.5" width="24.4" height="24.65" shape-rendering="crispEdges"/><rect fill="#241f1a" x="524.6" y="245.5" width="61" height="24.65" shape-rendering="crispEdges"/><rect fill="#241f1a" x="585.6" y="245.5" width="24.4" height="24.65" shape-rendering="crispEdges"/><rect fill="#241f1a" x="610" y="245.5" width="12.2" height="24.65" shape-rendering="crispEdges"/><rect fill="#241f1a" x="622.2" y="245.5" width="12.2" height="24.65" shape-rendering="crispEdges"/><rect fill="#241f1a" x="634.4" y="245.5" width="85.4" height="24.65" shape-rendering="crispEdges"/><rect fill="#241f1a" x="719.8" y="245.5" width="122" height="24.65" shape-rendering="crispEdges"/><rect fill="#241f1a" x="841.8" y="245.5" width="12.2" height="24.65" shape-rendering="crispEdges"/><rect fill="#241f1a" x="854" y="245.5" width="12.2" height="24.65" shape-rendering="crispEdges"/><rect fill="#241f1a" x="866.2" y="245.5" width="24.4" height="24.65" shape-rendering="crispEdges"/><rect fill="#241f1a" x="890.6" y="245.5" width="73.2" height="24.65" shape-rendering="crispEdges"/><rect fill="#241f1a" x="963.8" y="245.5" width="12.2" height="24.65" shape-rendering="crispEdges"/><rect fill="#241f1a" x="0" y="269.9" width="24.4" height="24.65" shape-rendering="crispEdges"/><rect fill="#241f1a" x="24.4" y="269.9" width="12.2" height="24.65" shape-rendering="crispEdges"/><rect fill="#241f1a" x="36.6" y="269.9" width="85.4" height="24.65" shape-rendering="crispEdges"/><rect fill="#241f1a" x="122" y="269.9" width="36.6" height="24.65" shape-rendering="crispEdges"/><rect fill="#241f1a" x="158.6" y="269.9" width="48.8" height="24.65" shape-rendering="crispEdges"/><rect fill="#241f1a" x="207.4" y="269.9" width="36.6" height="24.65" shape-rendering="crispEdges"/><rect fill="#241f1a" x="244" y="269.9" width="231.8" height="24.65" shape-rendering="crispEdges"/><rect fill="#241f1a" x="475.8" y="269.9" width="36.6" height="24.65" shape-rendering="crispEdges"/><rect fill="#241f1a" x="512.4" y="269.9" width="97.6" height="24.65" shape-rendering="crispEdges"/><rect fill="#241f1a" x="610" y="269.9" width="36.6" height="24.65" shape-rendering="crispEdges"/><rect fill="#241f1a" x="646.6" y="269.9" width="219.6" height="24.65" shape-rendering="crispEdges"/><rect fill="#241f1a" x="866.2" y="269.9" width="36.6" height="24.65" shape-rendering="crispEdges"/><rect fill="#241f1a" x="902.8" y="269.9" width="36.6" height="24.65" shape-rendering="crispEdges"/><rect fill="#241f1a" x="939.4" y="269.9" width="36.6" height="24.65" shape-rendering="crispEdges"/>
    <g class="terminal-3303646997-matrix">
    <text class="terminal-3303646997-r1" x="976" y="20" textLength="12.2" clip-path="url(#terminal-3303646997-line-0)">
</text><text class="terminal-3303646997-r1" x="976" y="44.4" textLength="12.2" clip-path="url(#terminal-3303646997-line-1)">
</text><text class="terminal-3303646997-r1" x="976" y="68.8" textLength="12.2" clip-path="url(#terminal-3303646997-line-2)">
</text><text class="terminal-3303646997-r1" x="976" y="93.2" textLength="12.2" clip-path="url(#terminal-3303646997-line-3)">
</text><text class="terminal-3303646997-r1" x="976" y="117.6" textLength="12.2" clip-path="url(#terminal-3303646997-line-4)">
</text><text class="terminal-3303646997-r1" x="976" y="142" textLength="12.2" clip-path="url(#terminal-3303646997-line-5)">
</text><text class="terminal-3303646997-r1" x="976" y="166.4" textLength="12.2" clip-path="url(#terminal-3303646997-line-6)">
</text><text class="terminal-3303646997-r2" x="0" y="190.8" textLength="976" clip-path="url(#terminal-3303646997-line-7)">━━━━━━━━━━━━━━━━━━━━━━━━━━━━━━━━━━━━━━━━━━━━━━━━━━━━━━━━━━━━━━━━━━━━━━━━━━━━━━━━</text><text class="terminal-3303646997-r1" x="976" y="190.8" textLength="12.2" clip-path="url(#terminal-3303646997-line-7)">
</text><text class="terminal-3303646997-r3" x="0" y="215.2" textLength="12.2" clip-path="url(#terminal-3303646997-line-8)">❯</text><text class="terminal-3303646997-r1" x="976" y="215.2" textLength="12.2" clip-path="url(#terminal-3303646997-line-8)">
</text><text class="terminal-3303646997-r2" x="0" y="239.6" textLength="12.2" clip-path="url(#terminal-3303646997-line-9)">┏</text><text class="terminal-3303646997-r2" x="12.2" y="239.6" textLength="24.4" clip-path="url(#terminal-3303646997-line-9)">━&#160;</text><text class="terminal-3303646997-r3" x="36.6" y="239.6" textLength="48.8" clip-path="url(#terminal-3303646997-line-9)">AMMO</text><text class="terminal-3303646997-r2" x="85.4" y="239.6" textLength="85.4" clip-path="url(#terminal-3303646997-line-9)">&#160;━━━━━━</text><text class="terminal-3303646997-r2" x="170.8" y="239.6" textLength="12.2" clip-path="url(#terminal-3303646997-line-9)">┳</text><text class="terminal-3303646997-r2" x="183" y="239.6" textLength="24.4" clip-path="url(#terminal-3303646997-line-9)">━&#160;</text><text class="terminal-3303646997-r3" x="207.4" y="239.6" textLength="73.2" clip-path="url(#terminal-3303646997-line-9)">HEALTH</text><text class="terminal-3303646997-r2" x="280.6" y="239.6" textLength="48.8" clip-path="url(#terminal-3303646997-line-9)">&#160;━━━</text><text class="terminal-3303646997-r2" x="329.4" y="239.6" textLength="12.2" clip-path="url(#terminal-3303646997-line-9)">┳</text><text class="terminal-3303646997-r2" x="341.6" y="239.6" textLength="24.4" clip-path="url(#terminal-3303646997-line-9)">━&#160;</text><text class="terminal-3303646997-r3" x="366" y="239.6" textLength="48.8" clip-path="url(#terminal-3303646997-line-9)">ARMS</text><text class="terminal-3303646997-r2" x="414.8" y="239.6" textLength="73.2" clip-path="url(#terminal-3303646997-line-9)">&#160;━━━━━</text><text class="terminal-3303646997-r2" x="488" y="239.6" textLength="12.2" clip-path="url(#terminal-3303646997-line-9)">┳</text><text class="terminal-3303646997-r2" x="500.2" y="239.6" textLength="109.8" clip-path="url(#terminal-3303646997-line-9)">━━━━━━━━━</text><text class="terminal-3303646997-r2" x="610" y="239.6" textLength="12.2" clip-path="url(#terminal-3303646997-line-9)">┳</text><text class="terminal-3303646997-r2" x="622.2" y="239.6" textLength="24.4" clip-path="url(#terminal-3303646997-line-9)">━&#160;</text><text class="terminal-3303646997-r3" x="646.6" y="239.6" textLength="61" clip-path="url(#terminal-3303646997-line-9)">ARMOR</text><text class="terminal-3303646997-r2" x="707.6" y="239.6" textLength="134.2" clip-path="url(#terminal-3303646997-line-9)">&#160;━━━━━━━━━━</text><text class="terminal-3303646997-r2" x="841.8" y="239.6" textLength="12.2" clip-path="url(#terminal-3303646997-line-9)">┳</text><text class="terminal-3303646997-r2" x="854" y="239.6" textLength="24.4" clip-path="url(#terminal-3303646997-line-9)">━&#160;</text><text class="terminal-3303646997-r3" x="878.4" y="239.6" textLength="48.8" clip-path="url(#terminal-3303646997-line-9)">KEYS</text><text class="terminal-3303646997-r2" x="927.2" y="239.6" textLength="36.6" clip-path="url(#terminal-3303646997-line-9)">&#160;━━</text><text class="terminal-3303646997-r2" x="963.8" y="239.6" textLength="12.2" clip-path="url(#terminal-3303646997-line-9)">┓</text><text class="terminal-3303646997-r1" x="976" y="239.6" textLength="12.2" clip-path="url(#terminal-3303646997-line-9)">
</text><text class="terminal-3303646997-r2" x="0" y="264" textLength="12.2" clip-path="url(#terminal-3303646997-line-10)">┃</text><text class="terminal-3303646997-r7" x="24.4" y="264" textLength="24.4" clip-path="url(#terminal-3303646997-line-10)">◆&#160;</text><text class="terminal-3303646997-r8" x="48.8" y="264" textLength="109.8" clip-path="url(#terminal-3303646997-line-10)">700k&#160;left</text><text class="terminal-3303646997-r2" x="170.8" y="264" textLength="12.2" clip-path="url(#terminal-3303646997-line-10)">┃</text><text class="terminal-3303646997-r8" x="195.2" y="264" textLength="85.4" clip-path="url(#terminal-3303646997-line-10)">████░░&#160;</text><text class="terminal-3303646997-r8" x="280.6" y="264" textLength="36.6" clip-path="url(#terminal-3303646997-line-10)">70%</text><text class="terminal-3303646997-r2" x="329.4" y="264" textLength="12.2" clip-path="url(#terminal-3303646997-line-10)">┃</text><text class="terminal-3303646997-r7" x="353.8" y="264" textLength="24.4" clip-path="url(#terminal-3303646997-line-10)">▲&#160;</text><text class="terminal-3303646997-r8" x="378.2" y="264" textLength="97.6" clip-path="url(#terminal-3303646997-line-10)">41&#160;tools</text><text class="terminal-3303646997-r2" x="488" y="264" textLength="12.2" clip-path="url(#terminal-3303646997-line-10)">┃</text><text class="terminal-3303646997-r6" x="524.6" y="264" textLength="61" clip-path="url(#terminal-3303646997-line-10)">▐o_o▌</text><text class="terminal-3303646997-r2" x="610" y="264" textLength="12.2" clip-path="url(#terminal-3303646997-line-10)">┃</text><text class="terminal-3303646997-r6" x="634.4" y="264" textLength="85.4" clip-path="url(#terminal-3303646997-line-10)">$0.0123</text><text class="terminal-3303646997-r2" x="841.8" y="264" textLength="12.2" clip-path="url(#terminal-3303646997-line-10)">┃</text><text class="terminal-3303646997-r8" x="866.2" y="264" textLength="24.4" clip-path="url(#terminal-3303646997-line-10)">or</text><text class="terminal-3303646997-r2" x="963.8" y="264" textLength="12.2" clip-path="url(#terminal-3303646997-line-10)">┃</text><text class="terminal-3303646997-r1" x="976" y="264" textLength="12.2" clip-path="url(#terminal-3303646997-line-10)">
</text><text class="terminal-3303646997-r2" x="0" y="288.4" textLength="24.4" clip-path="url(#terminal-3303646997-line-11)">┗━</text><text class="terminal-3303646997-r6" x="36.6" y="288.4" textLength="73.2" clip-path="url(#terminal-3303646997-line-11)">⏩&#160;auto</text><text class="terminal-3303646997-r2" x="122" y="288.4" textLength="36.6" clip-path="url(#terminal-3303646997-line-11)">&#160;━&#160;</text><text class="terminal-3303646997-r6" x="158.6" y="288.4" textLength="48.8" clip-path="url(#terminal-3303646997-line-11)">high</text><text class="terminal-3303646997-r2" x="207.4" y="288.4" textLength="36.6" clip-path="url(#terminal-3303646997-line-11)">&#160;━&#160;</text><text class="terminal-3303646997-r6" x="244" y="288.4" textLength="231.8" clip-path="url(#terminal-3303646997-line-11)">▸&#160;or:demo/atlas-pro</text><text class="terminal-3303646997-r2" x="475.8" y="288.4" textLength="36.6" clip-path="url(#terminal-3303646997-line-11)">&#160;━&#160;</text><text class="terminal-3303646997-r6" x="512.4" y="288.4" textLength="97.6" clip-path="url(#terminal-3303646997-line-11)">agents&#160;2</text><text class="terminal-3303646997-r2" x="610" y="288.4" textLength="36.6" clip-path="url(#terminal-3303646997-line-11)">&#160;━&#160;</text><text class="terminal-3303646997-r9" x="646.6" y="288.4" textLength="219.6" clip-path="url(#terminal-3303646997-line-11)">⌂&#160;~/project&#160;(main)</text><text class="terminal-3303646997-r2" x="866.2" y="288.4" textLength="36.6" clip-path="url(#terminal-3303646997-line-11)">&#160;━&#160;</text><text class="terminal-3303646997-r8" x="902.8" y="288.4" textLength="36.6" clip-path="url(#terminal-3303646997-line-11)">3/3</text><text class="terminal-3303646997-r2" x="939.4" y="288.4" textLength="36.6" clip-path="url(#terminal-3303646997-line-11)">&#160;━┛</text>
    </g>
    </g>
</svg>
