<svg class="rich-terminal" viewBox="0 0 628 342.79999999999995" xmlns="http://www.w3.org/2000/svg">
    <!-- Generated with Rich https://www.textualize.io -->
    <style>

    @font-face {
        font-family: "Fira Code";
        src: local("FiraCode-Regular"),
                url("https://cdnjs.cloudflare.com/ajax/libs/firacode/6.2.0/woff2/FiraCode-Regular.woff2") format("woff2"),
                url("https://cdnjs.cloudflare.com/ajax/libs/firacode/6.2.0/woff/FiraCode-Regular.woff") format("woff");
        font-style: normal;
        font-weight: 400;
    }
    @font-face {
        font-family: "Fira Code";
        src: local("FiraCode-Bold"),
                url("https://cdnjs.cloudflare.com/ajax/libs/firacode/6.2.0/woff2/FiraCode-Bold.woff2") format("woff2"),
                url("https://cdnjs.cloudflare.com/ajax/libs/firacode/6.2.0/woff/FiraCode-Bold.woff") format("woff");
        font-style: bold;
        font-weight: 700;
    }

    .terminal-814291832-matrix {
        font-family: Fira Code, monospace;
        font-size: 20px;
        line-height: 24.4px;
        font-variant-east-asian: full-width;
    }

    .terminal-814291832-title {
        font-size: 18px;
        font-weight: bold;
        font-family: arial;
    }

    .terminal-814291832-r1 { fill: #c5c8c6 }
.terminal-814291832-r2 { fill: #b5471a }
.terminal-814291832-r3 { fill: #f8b830;font-weight: bold }
.terminal-814291832-r4 { fill: #121212 }
.terminal-814291832-r5 { fill: #e0e0e0 }
.terminal-814291832-r6 { fill: #c4511f }
.terminal-814291832-r7 { fill: #f4f4f4 }
.terminal-814291832-r8 { fill: #3fb83f }
.terminal-814291832-r9 { fill: #6879b5 }
.terminal-814291832-r10 { fill: #f8b830 }
.terminal-814291832-r11 { fill: #9db0e6 }
    </style>

    <defs>
    <clipPath id="terminal-814291832-clip-terminal">
      <rect x="0" y="0" width="609.0" height="291.79999999999995" />
    </clipPath>
    <clipPath id="terminal-814291832-line-0">
    <rect x="0" y="1.5" width="610" height="24.65"/>
            </clipPath>
<clipPath id="terminal-814291832-line-1">
    <rect x="0" y="25.9" width="610" height="24.65"/>
            </clipPath>
<clipPath id="terminal-814291832-line-2">
    <rect x="0" y="50.3" width="610" height="24.65"/>
            </clipPath>
<clipPath id="terminal-814291832-line-3">
    <rect x="0" y="74.7" width="610" height="24.65"/>
            </clipPath>
<clipPath id="terminal-814291832-line-4">
    <rect x="0" y="99.1" width="610" height="24.65"/>
            </clipPath>
<clipPath id="terminal-814291832-line-5">
    <rect x="0" y="123.5" width="610" height="24.65"/>
            </clipPath>
<clipPath id="terminal-814291832-line-6">
    <rect x="0" y="147.9" width="610" height="24.65"/>
            </clipPath>
<clipPath id="terminal-814291832-line-7">
    <rect x="0" y="172.3" width="610" height="24.65"/>
            </clipPath>
<clipPath id="terminal-814291832-line-8">
    <rect x="0" y="196.7" width="610" height="24.65"/>
            </clipPath>
<clipPath id="terminal-814291832-line-9">
    <rect x="0" y="221.1" width="610" height="24.65"/>
            </clipPath>
<clipPath id="terminal-814291832-line-10">
    <rect x="0" y="245.5" width="610" height="24.65"/>
            </clipPath>
    </defs>

    <rect fill="#292929" stroke="rgba(255,255,255,0.35)" stroke-width="1" x="1" y="1" width="626" height="340.8" rx="8"/><text class="terminal-814291832-title" fill="#c5c8c6" text-anchor="middle" x="313" y="27">halo&#160;--&#160;mario-hud-width-narrow</text>
            <g transform="translate(26,22)">
            <circle cx="0" cy="0" r="7" fill="#ff5f57"/>
            <circle cx="22" cy="0" r="7" fill="#febc2e"/>
            <circle cx="44" cy="0" r="7" fill="#28c840"/>
            </g>
        
    <g transform="translate(9, 41)" clip-path="url(#terminal-814291832-clip-terminal)">
    <rect fill="#0e1830" x="0" y="1.5" width="610" height="24.65" shape-rendering="crispEdges"/><rect fill="#0e1830" x="0" y="25.9" width="610" height="24.65" shape-rendering="crispEdges"/><rect fill="#0e1830" x="0" y="50.3" width="610" height="24.65" shape-rendering="crispEdges"/><rect fill="#0e1830" x="0" y="74.7" width="610" height="24.65" shape-rendering="crispEdges"/><rect fill="#0e1830" x="0" y="99.1" width="610" height="24.65" shape-rendering="crispEdges"/><rect fill="#0e1830" x="0" y="123.5" width="610" height="24.65" shape-rendering="crispEdges"/><rect fill="#0e1830" x="0" y="147.9" width="610" height="24.65" shape-rendering="crispEdges"/><rect fill="#15234a" x="0" y="172.3" width="610" height="24.65" shape-rendering="crispEdges"/><rect fill="#15234a" x="0" y="196.7" width="12.2" height="24.65" shape-rendering="crispEdges"/><rect fill="#15234a" x="12.2" y="196.7" width="12.2" height="24.65" shape-rendering="crispEdges"/><rect fill="#15234a" x="24.4" y="196.7" width="12.2" height="24.65" shape-rendering="crispEdges"/><rect fill="#e0e0e0" x="36.6" y="196.7" width="12.2" height="24.65" shape-rendering="crispEdges"/><rect fill="#1e2b51" x="48.8" y="196.7" width="524.6" height="24.65" shape-rendering="crispEdges"/><rect fill="#15234a" x="573.4" y="196.7" width="12.2" height="24.65" shape-rendering="crispEdges"/><rect fill="#15234a" x="585.6" y="196.7" width="12.2" height="24.65" shape-rendering="crispEdges"/><rect fill="#15234a" x="597.8" y="196.7" width="12.2" height="24.65" shape-rendering="crispEdges"/><rect fill="#1c2d5e" x="0" y="221.1" width="12.2" height="24.65" shape-rendering="crispEdges"/><rect fill="#1c2d5e" x="12.2" y="221.1" width="24.4" height="24.65" shape-rendering="crispEdges"/><rect fill="#1c2d5e" x="36.6" y="221.1" width="61" height="24.65" shape-rendering="crispEdges"/><rect fill="#1c2d5e" x="97.6" y="221.1" width="61" height="24.65" shape-rendering="crispEdges"/><rect fill="#1c2d5e" x="158.6" y="221.1" width="12.2" height="24.65" shape-rendering="crispEdges"/><rect fill="#1c2d5e" x="170.8" y="221.1" width="24.4" height="24.65" shape-rendering="crispEdges"/><rect fill="#1c2d5e" x="195.2" y="221.1" width="61" height="24.65" shape-rendering="crispEdges"/><rect fill="#1c2d5e" x="256.2" y="221.1" width="85.4" height="24.65" shape-rendering="crispEdges"/><rect fill="#1c2d5e" x="341.6" y="221.1" width="12.2" height="24.65" shape-rendering="crispEdges"/><rect fill="#1c2d5e" x="353.8" y="221.1" width="109.8" height="24.65" shape-rendering="crispEdges"/><rect fill="#1c2d5e" x="463.6" y="221.1" width="12.2" height="24.65" shape-rendering="crispEdges"/><rect fill="#1c2d5e" x="475.8" y="221.1" width="24.4" height="24.65" shape-rendering="crispEdges"/><rect fill="#1c2d5e" x="500.2" y="221.1" width="61" height="24.65" shape-rendering="crispEdges"/><rect fill="#1c2d5e" x="561.2" y="221.1" width="36.6" height="24.65" shape-rendering="crispEdges"/><rect fill="#1c2d5e" x="597.8" y="221.1" width="12.2" height="24.65" shape-rendering="crispEdges"/><rect fill="#1c2d5e" x="0" y="245.5" width="12.2" height="24.65" shape-rendering="crispEdges"/><rect fill="#1c2d5e" x="12.2" y="245.5" width="12.2" height="24.65" shape-rendering="crispEdges"/><rect fill="#1c2d5e" x="24.4" y="245.5" width="36.6" height="24.65" shape-rendering="crispEdges"/><rect fill="#1c2d5e" x="61" y="245.5" width="48.8" height="24.65" shape-rendering="crispEdges"/><rect fill="#1c2d5e" x="109.8" y="245.5" width="36.6" height="24.65" shape-rendering="crispEdges"/><rect fill="#1c2d5e" x="146.4" y="245.5" width="12.2" height="24.65" shape-rendering="crispEdges"/><rect fill="#1c2d5e" x="158.6" y="245.5" width="12.2" height="24.65" shape-rendering="crispEdges"/><rect fill="#1c2d5e" x="170.8" y="245.5" width="12.2" height="24.65" shape-rendering="crispEdges"/><rect fill="#1c2d5e" x="183" y="245.5" width="24.4" height="24.65" shape-rendering="crispEdges"/><rect fill="#1c2d5e" x="207.4" y="245.5" width="85.4" height="24.65" shape-rendering="crispEdges"/><rect fill="#1c2d5e" x="292.8" y="245.5" width="48.8" height="24.65" shape-rendering="crispEdges"/><rect fill="#1c2d5e" x="341.6" y="245.5" width="12.2" height="24.65" shape-rendering="crispEdges"/><rect fill="#1c2d5e" x="353.8" y="245.5" width="12.2" height="24.65" shape-rendering="crispEdges"/><rect fill="#1c2d5e" x="366" y="245.5" width="85.4" height="24.65" shape-rendering="crispEdges"/><rect fill="#1c2d5e" x="451.4" y="245.5" width="12.2" height="24.65" shape-rendering="crispEdges"/><rect fill="#1c2d5e" x="463.6" y="245.5" width="12.2" height="24.65" shape-rendering="crispEdges"/><rect fill="#1c2d5e" x="475.8" y="245.5" width="12.2" height="24.65" shape-rendering="crispEdges"/><rect fill="#1c2d5e" x="488" y="245.5" width="85.4" height="24.65" shape-rendering="crispEdges"/><rect fill="#1c2d5e" x="573.4" y="245.5" width="24.4" height="24.65" shape-rendering="crispEdges"/><rect fill="#1c2d5e" x="597.8" y="245.5" width="12.2" height="24.65" shape-rendering="crispEdges"/><rect fill="#1c2d5e" x="0" y="269.9" width="24.4" height="24.65" shape-rendering="crispEdges"/><rect fill="#1c2d5e" x="24.4" y="269.9" width="12.2" height="24.65" shape-rendering="crispEdges"/><rect fill="#1c2d5e" x="36.6" y="269.9" width="85.4" height="24.65" shape-rendering="crispEdges"/><rect fill="#1c2d5e" x="122" y="269.9" width="488" height="24.65" shape-rendering="crispEdges"/>
    <g class="terminal-814291832-matrix">
    <text class="terminal-814291832-r1" x="610" y="20" textLength="12.2" clip-path="url(#terminal-814291832-line-0)">
</text><text class="terminal-814291832-r1" x="610" y="44.4" textLength="12.2" clip-path="url(#terminal-814291832-line-1)">
</text><text class="terminal-814291832-r1" x="610" y="68.8" textLength="12.2" clip-path="url(#terminal-814291832-line-2)">
</text><text class="terminal-814291832-r1" x="610" y="93.2" textLength="12.2" clip-path="url(#terminal-814291832-line-3)">
</text><text class="terminal-814291832-r1" x="610" y="117.6" textLength="12.2" clip-path="url(#terminal-814291832-line-4)">
</text><text class="terminal-814291832-r1" x="610" y="142" textLength="12.2" clip-path="url(#terminal-814291832-line-5)">
</text><text class="terminal-814291832-r1" x="610" y="166.4" textLength="12.2" clip-path="url(#terminal-814291832-line-6)">
</text><text class="terminal-814291832-r2" x="0" y="190.8" textLength="610" clip-path="url(#terminal-814291832-line-7)">▒▒▒▒▒▒▒▒▒▒▒▒▒▒▒▒▒▒▒▒▒▒▒▒▒▒▒▒▒▒▒▒▒▒▒▒▒▒▒▒▒▒▒▒▒▒▒▒▒▒</text><text class="terminal-814291832-r1" x="610" y="190.8" textLength="12.2" clip-path="url(#terminal-814291832-line-7)">
</text><text class="terminal-814291832-r3" x="0" y="215.2" textLength="12.2" clip-path="url(#terminal-814291832-line-8)">╞</text><text class="terminal-814291832-r3" x="585.6" y="215.2" textLength="12.2" clip-path="url(#terminal-814291832-line-8)">╡</text><text class="terminal-814291832-r1" x="610" y="215.2" textLength="12.2" clip-path="url(#terminal-814291832-line-8)">
</text><text class="terminal-814291832-r6" x="0" y="239.6" textLength="12.2" clip-path="url(#terminal-814291832-line-9)">╔</text><text class="terminal-814291832-r6" x="12.2" y="239.6" textLength="24.4" clip-path="url(#terminal-814291832-line-9)">═&#160;</text><text class="terminal-814291832-r3" x="36.6" y="239.6" textLength="61" clip-path="url(#terminal-814291832-line-9)">POWER</text><text class="terminal-814291832-r6" x="97.6" y="239.6" textLength="61" clip-path="url(#terminal-814291832-line-9)">&#160;════</text><text class="terminal-814291832-r6" x="158.6" y="239.6" textLength="12.2" clip-path="url(#terminal-814291832-line-9)">╦</text><text class="terminal-814291832-r6" x="170.8" y="239.6" textLength="24.4" clip-path="url(#terminal-814291832-line-9)">═&#160;</text><text class="terminal-814291832-r3" x="195.2" y="239.6" textLength="61" clip-path="url(#terminal-814291832-line-9)">COINS</text><text class="terminal-814291832-r6" x="256.2" y="239.6" textLength="85.4" clip-path="url(#terminal-814291832-line-9)">&#160;══════</text><text class="terminal-814291832-r6" x="341.6" y="239.6" textLength="12.2" clip-path="url(#terminal-814291832-line-9)">╦</text><text class="terminal-814291832-r6" x="353.8" y="239.6" textLength="109.8" clip-path="url(#terminal-814291832-line-9)">═════════</text><text class="terminal-814291832-r6" x="463.6" y="239.6" textLength="12.2" clip-path="url(#terminal-814291832-line-9)">╦</text><text class="terminal-814291832-r6" x="475.8" y="239.6" textLength="24.4" clip-path="url(#terminal-814291832-line-9)">═&#160;</text><text class="terminal-814291832-r3" x="500.2" y="239.6" textLength="61" clip-path="url(#terminal-814291832-line-9)">WORLD</text><text class="terminal-814291832-r6" x="561.2" y="239.6" textLength="36.6" clip-path="url(#terminal-814291832-line-9)">&#160;══</text><text class="terminal-814291832-r6" x="597.8" y="239.6" textLength="12.2" clip-path="url(#terminal-814291832-line-9)">╗</text><text class="terminal-814291832-r1" x="610" y="239.6" textLength="12.2" clip-path="url(#terminal-814291832-line-9)">
</text><text class="terminal-814291832-r6" x="0" y="264" textLength="12.2" clip-path="url(#terminal-814291832-line-10)">║</text><text class="terminal-814291832-r8" x="24.4" y="264" textLength="36.6" clip-path="url(#terminal-814291832-line-10)">███</text><text class="terminal-814291832-r9" x="61" y="264" textLength="48.8" clip-path="url(#terminal-814291832-line-10)">▒▒▒&#160;</text><text class="terminal-814291832-r8" x="109.8" y="264" textLength="36.6" clip-path="url(#terminal-814291832-line-10)">55%</text><text class="terminal-814291832-r6" x="158.6" y="264" textLength="12.2" clip-path="url(#terminal-814291832-line-10)">║</text><text class="terminal-814291832-r10" x="183" y="264" textLength="24.4" clip-path="url(#terminal-814291832-line-10)">●&#160;</text><text class="terminal-814291832-r7" x="207.4" y="264" textLength="85.4" clip-path="url(#terminal-814291832-line-10)">$0.0123</text><text class="terminal-814291832-r6" x="341.6" y="264" textLength="12.2" clip-path="url(#terminal-814291832-line-10)">║</text><text class="terminal-814291832-r7" x="366" y="264" textLength="85.4" clip-path="url(#terminal-814291832-line-10)">▐&#x27;o~o&#x27;▌</text><text class="terminal-814291832-r6" x="463.6" y="264" textLength="12.2" clip-path="url(#terminal-814291832-line-10)">║</text><text class="terminal-814291832-r11" x="488" y="264" textLength="85.4" clip-path="url(#terminal-814291832-line-10)">project</text><text class="terminal-814291832-r6" x="597.8" y="264" textLength="12.2" clip-path="url(#terminal-814291832-line-10)">║</text><text class="terminal-814291832-r1" x="610" y="264" textLength="12.2" clip-path="url(#terminal-814291832-line-10)">
</text><text class="terminal-814291832-r6" x="0" y="288.4" textLength="24.4" clip-path="url(#terminal-814291832-line-11)">╚═</text><text class="terminal-814291832-r7" x="36.6" y="288.4" textLength="73.2" clip-path="url(#terminal-814291832-line-11)">⏩&#160;auto</text><text class="terminal-814291832-r6" x="122" y="288.4" textLength="488" clip-path="url(#terminal-814291832-line-11)">&#160;══════════════════════════════════════╝</text>
    </g>
    </g>
</svg>
