<svg class="rich-terminal" viewBox="0 0 1726 782.0" xmlns="http://www.w3.org/2000/svg">
    <!-- Generated with Rich https://www.textualize.io -->
    <style>

    @font-face {
        font-family: "Fira Code";
        src: local("FiraCode-Regular"),
                url("https://cdnjs.cloudflare.com/ajax/libs/firacode/6.2.0/woff2/FiraCode-Regular.woff2") format("woff2"),
                url("https://cdnjs.cloudflare.com/ajax/libs/firacode/6.2.0/woff/FiraCode-Regular.woff") format("woff");
        font-style: normal;
        font-weight: 400;
    }
    @font-face {
        font-family: "Fira Code";
        src: local("FiraCode-Bold"),
                url("https://cdnjs.cloudflare.com/ajax/libs/firacode/6.2.0/woff2/FiraCode-Bold.woff2") format("woff2"),
                url("https://cdnjs.cloudflare.com/ajax/libs/firacode/6.2.0/woff/FiraCode-Bold.woff") format("woff");
        font-style: bold;
        font-weight: 700;
    }

    .terminal-2344434556-matrix {
        font-family: Fira Code, monospace;
        font-size: 20px;
        line-height: 24.4px;
        font-variant-east-asian: full-width;
    }

    .terminal-2344434556-title {
        font-size: 18px;
        font-weight: bold;
        font-family: arial;
    }

    .terminal-2344434556-r1 { fill: #c5c8c6 }
.terminal-2344434556-r2 { fill: #5cc8fc;font-weight: bold }
.terminal-2344434556-r3 { fill: #f4f4f4 }
.terminal-2344434556-r4 { fill: #3fb83f }
.terminal-2344434556-r5 { fill: #e8651a }
.terminal-2344434556-r6 { fill: #b5471a }
.terminal-2344434556-r7 { fill: #f8b830;font-weight: bold }
.terminal-2344434556-r8 { fill: #121212 }
.terminal-2344434556-r9 { fill: #e0e0e0 }
.terminal-2344434556-r10 { fill: #c4511f }
.terminal-2344434556-r11 { fill: #6879b5 }
.terminal-2344434556-r12 { fill: #f8b830 }
.terminal-2344434556-r13 { fill: #9db0e6 }
    </style>

    <defs>
    <clipPath id="terminal-2344434556-clip-terminal">
      <rect x="0" y="0" width="1707.0" height="731.0" />
    </clipPath>
    <clipPath id="terminal-2344434556-line-0">
    <rect x="0" y="1.5" width="1708" height="24.65"/>
            </clipPath>
<clipPath id="terminal-2344434556-line-1">
    <rect x="0" y="25.9" width="1708" height="24.65"/>
            </clipPath>
<clipPath id="terminal-2344434556-line-2">
    <rect x="0" y="50.3" width="1708" height="24.65"/>
            </clipPath>
<clipPath id="terminal-2344434556-line-3">
    <rect x="0" y="74.7" width="1708" height="24.65"/>
            </clipPath>
<clipPath id="terminal-2344434556-line-4">
    <rect x="0" y="99.1" width="1708" height="24.65"/>
            </clipPath>
<clipPath id="terminal-2344434556-line-5">
    <rect x="0" y="123.5" width="1708" height="24.65"/>
            </clipPath>
<clipPath id="terminal-2344434556-line-6">
    <rect x="0" y="147.9" width="1708" height="24.65"/>
            </clipPath>
<clipPath id="terminal-2344434556-line-7">
    <rect x="0" y="172.3" width="1708" height="24.65"/>
            </clipPath>
<clipPath id="terminal-2344434556-line-8">
    <rect x="0" y="196.7" width="1708" height="24.65"/>
            </clipPath>
<clipPath id="terminal-2344434556-line-9">
    <rect x="0" y="221.1" width="1708" height="24.65"/>
            </clipPath>
<clipPath id="terminal-2344434556-line-10">
    <rect x="0" y="245.5" width="1708" height="24.65"/>
            </clipPath>
<clipPath id="terminal-2344434556-line-11">
    <rect x="0" y="269.9" width="1708" height="24.65"/>
            </clipPath>
<clipPath id="terminal-2344434556-line-12">
    <rect x="0" y="294.3" width="1708" height="24.65"/>
            </clipPath>
<clipPath id="terminal-2344434556-line-13">
    <rect x="0" y="318.7" width="1708" height="24.65"/>
            </clipPath>
<clipPath id="terminal-2344434556-line-14">
    <rect x="0" y="343.1" width="1708" height="24.65"/>
            </clipPath>
<clipPath id="terminal-2344434556-line-15">
    <rect x="0" y="367.5" width="1708" height="24.65"/>
            </clipPath>
<clipPath id="terminal-2344434556-line-16">
    <rect x="0" y="391.9" width="1708" height="24.65"/>
            </clipPath>
<clipPath id="terminal-2344434556-line-17">
    <rect x="0" y="416.3" width="1708" height="24.65"/>
            </clipPath>
<clipPath id="terminal-2344434556-line-18">
    <rect x="0" y="440.7" width="1708" height="24.65"/>
            </clipPath>
<clipPath id="terminal-2344434556-line-19">
    <rect x="0" y="465.1" width="1708" height="24.65"/>
            </clipPath>
<clipPath id="terminal-2344434556-line-20">
    <rect x="0" y="489.5" width="1708" height="24.65"/>
            </clipPath>
<clipPath id="terminal-2344434556-line-21">
    <rect x="0" y="513.9" width="1708" height="24.65"/>
            </clipPath>
<clipPath id="terminal-2344434556-line-22">
    <rect x="0" y="538.3" width="1708" height="24.65"/>
            </clipPath>
<clipPath id="terminal-2344434556-line-23">
    <rect x="0" y="562.7" width="1708" height="24.65"/>
            </clipPath>
<clipPath id="terminal-2344434556-line-24">
    <rect x="0" y="587.1" width="1708" height="24.65"/>
            </clipPath>
<clipPath id="terminal-2344434556-line-25">
    <rect x="0" y="611.5" width="1708" height="24.65"/>
            </clipPath>
<clipPath id="terminal-2344434556-line-26">
    <rect x="0" y="635.9" width="1708" height="24.65"/>
            </clipPath>
<clipPath id="terminal-2344434556-line-27">
    <rect x="0" y="660.3" width="1708" height="24.65"/>
            </clipPath>
<clipPath id="terminal-2344434556-line-28">
    <rect x="0" y="684.7" width="1708" height="24.65"/>
            </clipPath>
    </defs>

    <rect fill="#292929" stroke="rgba(255,255,255,0.35)" stroke-width="1" x="1" y="1" width="1724" height="780" rx="8"/><text class="terminal-2344434556-title" fill="#c5c8c6" text-anchor="middle" x="862" y="27">halo&#160;--&#160;mario-variant-bros</text>
            <g transform="translate(26,22)">
            <circle cx="0" cy="0" r="7" fill="#ff5f57"/>
            <circle cx="22" cy="0" r="7" fill="#febc2e"/>
            <circle cx="44" cy="0" r="7" fill="#28c840"/>
            </g>
        
    <g transform="translate(9, 41)" clip-path="url(#terminal-2344434556-clip-terminal)">
    <rect fill="#0e1830" x="0" y="1.5" width="1708" height="24.65" shape-rendering="crispEdges"/><rect fill="#0e1830" x="0" y="25.9" width="1708" height="24.65" shape-rendering="crispEdges"/><rect fill="#0e1830" x="0" y="50.3" width="1708" height="24.65" shape-rendering="crispEdges"/><rect fill="#0e1830" x="0" y="74.7" width="1708" height="24.65" shape-rendering="crispEdges"/><rect fill="#0e1830" x="0" y="99.1" width="1708" height="24.65" shape-rendering="crispEdges"/><rect fill="#0e1830" x="0" y="123.5" width="1708" height="24.65" shape-rendering="crispEdges"/><rect fill="#0e1830" x="0" y="147.9" width="1708" height="24.65" shape-rendering="crispEdges"/><rect fill="#0e1830" x="0" y="172.3" width="1708" height="24.65" shape-rendering="crispEdges"/><rect fill="#0e1830" x="0" y="196.7" width="1708" height="24.65" shape-rendering="crispEdges"/><rect fill="#0e1830" x="0" y="221.1" width="1708" height="24.65" shape-rendering="crispEdges"/><rect fill="#0e1830" x="0" y="245.5" width="1708" height="24.65" shape-rendering="crispEdges"/><rect fill="#0e1830" x="0" y="269.9" width="1708" height="24.65" shape-rendering="crispEdges"/><rect fill="#0e1830" x="0" y="294.3" width="1708" height="24.65" shape-rendering="crispEdges"/><rect fill="#0e1830" x="0" y="318.7" width="12.2" height="24.65" shape-rendering="crispEdges"/><rect fill="#0e1830" x="12.2" y="318.7" width="268.4" height="24.65" shape-rendering="crispEdges"/><rect fill="#0e1830" x="280.6" y="318.7" width="1427.4" height="24.65" shape-rendering="crispEdges"/><rect fill="#0e1830" x="0" y="343.1" width="1708" height="24.65" shape-rendering="crispEdges"/><rect fill="#0e1830" x="0" y="367.5" width="36.6" height="24.65" shape-rendering="crispEdges"/><rect fill="#0e1830" x="36.6" y="367.5" width="451.4" height="24.65" shape-rendering="crispEdges"/><rect fill="#0e1830" x="488" y="367.5" width="1220" height="24.65" shape-rendering="crispEdges"/><rect fill="#0e1830" x="0" y="391.9" width="1708" height="24.65" shape-rendering="crispEdges"/><rect fill="#0e1830" x="0" y="416.3" width="1708" height="24.65" shape-rendering="crispEdges"/><rect fill="#0e1830" x="0" y="440.7" width="12.2" height="24.65" shape-rendering="crispEdges"/><rect fill="#0e1830" x="12.2" y="440.7" width="12.2" height="24.65" shape-rendering="crispEdges"/><rect fill="#0e1830" x="24.4" y="440.7" width="12.2" height="24.65" shape-rendering="crispEdges"/><rect fill="#0e1830" x="36.6" y="440.7" width="390.4" height="24.65" shape-rendering="crispEdges"/><rect fill="#0e1830" x="427" y="440.7" width="1281" height="24.65" shape-rendering="crispEdges"/><rect fill="#0e1830" x="0" y="465.1" width="12.2" height="24.65" shape-rendering="crispEdges"/><rect fill="#0e1830" x="12.2" y="465.1" width="12.2" height="24.65" shape-rendering="crispEdges"/><rect fill="#0e1830" x="24.4" y="465.1" width="12.2" height="24.65" shape-rendering="crispEdges"/><rect fill="#0e1830" x="36.6" y="465.1" width="36.6" height="24.65" shape-rendering="crispEdges"/><rect fill="#0e1830" x="73.2" y="465.1" width="1634.8" height="24.65" shape-rendering="crispEdges"/><rect fill="#0e1830" x="0" y="489.5" width="12.2" height="24.65" shape-rendering="crispEdges"/><rect fill="#0e1830" x="12.2" y="489.5" width="12.2" height="24.65" shape-rendering="crispEdges"/><rect fill="#0e1830" x="24.4" y="489.5" width="12.2" height="24.65" shape-rendering="crispEdges"/><rect fill="#0e1830" x="36.6" y="489.5" width="73.2" height="24.65" shape-rendering="crispEdges"/><rect fill="#0e1830" x="109.8" y="489.5" width="1598.2" height="24.65" shape-rendering="crispEdges"/><rect fill="#0e1830" x="0" y="513.9" width="1708" height="24.65" shape-rendering="crispEdges"/><rect fill="#0e1830" x="0" y="538.3" width="36.6" height="24.65" shape-rendering="crispEdges"/><rect fill="#0e1830" x="36.6" y="538.3" width="488" height="24.65" shape-rendering="crispEdges"/><rect fill="#0e1830" x="524.6" y="538.3" width="1183.4" height="24.65" shape-rendering="crispEdges"/><rect fill="#0e1830" x="0" y="562.7" width="1708" height="24.65" shape-rendering="crispEdges"/><rect fill="#0e1830" x="0" y="587.1" width="1708" height="24.65" shape-rendering="crispEdges"/><rect fill="#15234a" x="0" y="611.5" width="1708" height="24.65" shape-rendering="crispEdges"/><rect fill="#15234a" x="0" y="635.9" width="12.2" height="24.65" shape-rendering="crispEdges"/><rect fill="#15234a" x="12.2" y="635.9" width="12.2" height="24.65" shape-rendering="crispEdges"/><rect fill="#15234a" x="24.4" y="635.9" width="12.2" height="24.65" shape-rendering="crispEdges"/><rect fill="#e0e0e0" x="36.6" y="635.9" width="12.2" height="24.65" shape-rendering="crispEdges"/><rect fill="#1e2b51" x="48.8" y="635.9" width="1622.6" height="24.65" shape-rendering="crispEdges"/><rect fill="#15234a" x="1671.4" y="635.9" width="12.2" height="24.65" shape-rendering="crispEdges"/><rect fill="#15234a" x="1683.6" y="635.9" width="12.2" height="24.65" shape-rendering="crispEdges"/><rect fill="#15234a" x="1695.8" y="635.9" width="12.2" height="24.65" shape-rendering="crispEdges"/><rect fill="#1c2d5e" x="0" y="660.3" width="12.2" height="24.65" shape-rendering="crispEdges"/><rect fill="#1c2d5e" x="12.2" y="660.3" width="24.4" height="24.65" shape-rendering="crispEdges"/><rect fill="#1c2d5e" x="36.6" y="660.3" width="61" height="24.65" shape-rendering="crispEdges"/><rect fill="#1c2d5e" x="97.6" y="660.3" width="85.4" height="24.65" shape-rendering="crispEdges"/><rect fill="#1c2d5e" x="183" y="660.3" width="12.2" height="24.65" shape-rendering="crispEdges"/><rect fill="#1c2d5e" x="195.2" y="660.3" width="24.4" height="24.65" shape-rendering="crispEdges"/><rect fill="#1c2d5e" x="219.6" y="660.3" width="61" height="24.65" shape-rendering="crispEdges"/><rect fill="#1c2d5e" x="280.6" y="660.3" width="85.4" height="24.65" shape-rendering="crispEdges"/><rect fill="#1c2d5e" x="366" y="660.3" width="12.2" height="24.65" shape-rendering="crispEdges"/><rect fill="#1c2d5e" x="378.2" y="660.3" width="24.4" height="24.65" shape-rendering="crispEdges"/><rect fill="#1c2d5e" x="402.6" y="660.3" width="61" height="24.65" shape-rendering="crispEdges"/><rect fill="#1c2d5e" x="463.6" y="660.3" width="280.6" height="24.65" shape-rendering="crispEdges"/><rect fill="#1c2d5e" x="744.2" y="660.3" width="12.2" height="24.65" shape-rendering="crispEdges"/><rect fill="#1c2d5e" x="756.4" y="660.3" width="134.2" height="24.65" shape-rendering="crispEdges"/><rect fill="#1c2d5e" x="890.6" y="660.3" width="12.2" height="24.65" shape-rendering="crispEdges"/><rect fill="#1c2d5e" x="902.8" y="660.3" width="24.4" height="24.65" shape-rendering="crispEdges"/><rect fill="#1c2d5e" x="927.2" y="660.3" width="61" height="24.65" shape-rendering="crispEdges"/><rect fill="#1c2d5e" x="988.2" y="660.3" width="122" height="24.65" shape-rendering="crispEdges"/><rect fill="#1c2d5e" x="1110.2" y="660.3" width="12.2" height="24.65" shape-rendering="crispEdges"/><rect fill="#1c2d5e" x="1122.4" y="660.3" width="24.4" height="24.65" shape-rendering="crispEdges"/><rect fill="#1c2d5e" x="1146.8" y="660.3" width="48.8" height="24.65" shape-rendering="crispEdges"/><rect fill="#1c2d5e" x="1195.6" y="660.3" width="36.6" height="24.65" shape-rendering="crispEdges"/><rect fill="#1c2d5e" x="1232.2" y="660.3" width="12.2" height="24.65" shape-rendering="crispEdges"/><rect fill="#1c2d5e" x="1244.4" y="660.3" width="24.4" height="24.65" shape-rendering="crispEdges"/><rect fill="#1c2d5e" x="1268.8" y="660.3" width="61" height="24.65" shape-rendering="crispEdges"/><rect fill="#1c2d5e" x="1329.8" y="660.3" width="48.8" height="24.65" shape-rendering="crispEdges"/><rect fill="#1c2d5e" x="1378.6" y="660.3" width="12.2" height="24.65" shape-rendering="crispEdges"/><rect fill="#1c2d5e" x="1390.8" y="660.3" width="24.4" height="24.65" shape-rendering="crispEdges"/><rect fill="#1c2d5e" x="1415.2" y="660.3" width="61" height="24.65" shape-rendering="crispEdges"/><rect fill="#1c2d5e" x="1476.2" y="660.3" width="85.4" height="24.65" shape-rendering="crispEdges"/><rect fill="#1c2d5e" x="1561.6" y="660.3" width="12.2" height="24.65" shape-rendering="crispEdges"/><rect fill="#1c2d5e" x="1573.8" y="660.3" width="24.4" height="24.65" shape-rendering="crispEdges"/><rect fill="#1c2d5e" x="1598.2" y="660.3" width="61" height="24.65" shape-rendering="crispEdges"/><rect fill="#1c2d5e" x="1659.2" y="660.3" width="36.6" height="24.65" shape-rendering="crispEdges"/><rect fill="#1c2d5e" x="1695.8" y="660.3" width="12.2" height="24.65" shape-rendering="crispEdges"/><rect fill="#1c2d5e" x="0" y="684.7" width="12.2" height="24.65" shape-rendering="crispEdges"/><rect fill="#1c2d5e" x="12.2" y="684.7" width="12.2" height="24.65" shape-rendering="crispEdges"/><rect fill="#1c2d5e" x="24.4" y="684.7" width="109.8" height="24.65" shape-rendering="crispEdges"/><rect fill="#1c2d5e" x="134.2" y="684.7" width="48.8" height="24.65" shape-rendering="crispEdges"/><rect fill="#1c2d5e" x="183" y="684.7" width="12.2" height="24.65" shape-rendering="crispEdges"/><rect fill="#1c2d5e" x="195.2" y="684.7" width="12.2" height="24.65" shape-rendering="crispEdges"/><rect fill="#1c2d5e" x="207.4" y="684.7" width="36.6" height="24.65" shape-rendering="crispEdges"/><rect fill="#1c2d5e" x="244" y="684.7" width="48.8" height="24.65" shape-rendering="crispEdges"/><rect fill="#1c2d5e" x="292.8" y="684.7" width="36.6" height="24.65" shape-rendering="crispEdges"/><rect fill="#1c2d5e" x="329.4" y="684.7" width="36.6" height="24.65" shape-rendering="crispEdges"/><rect fill="#1c2d5e" x="366" y="684.7" width="12.2" height="24.65" shape-rendering="crispEdges"/><rect fill="#1c2d5e" x="378.2" y="684.7" width="12.2" height="24.65" shape-rendering="crispEdges"/><rect fill="#1c2d5e" x="390.4" y="684.7" width="24.4" height="24.65" shape-rendering="crispEdges"/><rect fill="#1c2d5e" x="414.8" y="684.7" width="292.8" height="24.65" shape-rendering="crispEdges"/><rect fill="#1c2d5e" x="707.6" y="684.7" width="36.6" height="24.65" shape-rendering="crispEdges"/><rect fill="#1c2d5e" x="744.2" y="684.7" width="12.2" height="24.65" shape-rendering="crispEdges"/><rect fill="#1c2d5e" x="756.4" y="684.7" width="24.4" height="24.65" shape-rendering="crispEdges"/><rect fill="#1c2d5e" x="780.8" y="684.7" width="85.4" height="24.65" shape-rendering="crispEdges"/><rect fill="#1c2d5e" x="866.2" y="684.7" width="24.4" height="24.65" shape-rendering="crispEdges"/><rect fill="#1c2d5e" x="890.6" y="684.7" width="12.2" height="24.65" shape-rendering="crispEdges"/><rect fill="#1c2d5e" x="902.8" y="684.7" width="12.2" height="24.65" shape-rendering="crispEdges"/><rect fill="#1c2d5e" x="915" y="684.7" width="170.8" height="24.65" shape-rendering="crispEdges"/><rect fill="#1c2d5e" x="1085.8" y="684.7" width="24.4" height="24.65" shape-rendering="crispEdges"/><rect fill="#1c2d5e" x="1110.2" y="684.7" width="12.2" height="24.65" shape-rendering="crispEdges"/><rect fill="#1c2d5e" x="1122.4" y="684.7" width="12.2" height="24.65" shape-rendering="crispEdges"/><rect fill="#1c2d5e" x="1134.6" y="684.7" width="48.8" height="24.65" shape-rendering="crispEdges"/><rect fill="#1c2d5e" x="1183.4" y="684.7" width="48.8" height="24.65" shape-rendering="crispEdges"/><rect fill="#1c2d5e" x="1232.2" y="684.7" width="12.2" height="24.65" shape-rendering="crispEdges"/><rect fill="#1c2d5e" x="1244.4" y="684.7" width="12.2" height="24.65" shape-rendering="crispEdges"/><rect fill="#1c2d5e" x="1256.6" y="684.7" width="36.6" height="24.65" shape-rendering="crispEdges"/><rect fill="#1c2d5e" x="1293.2" y="684.7" width="24.4" height="24.65" shape-rendering="crispEdges"/><rect fill="#1c2d5e" x="1317.6" y="684.7" width="61" height="24.65" shape-rendering="crispEdges"/><rect fill="#1c2d5e" x="1378.6" y="684.7" width="12.2" height="24.65" shape-rendering="crispEdges"/><rect fill="#1c2d5e" x="1390.8" y="684.7" width="12.2" height="24.65" shape-rendering="crispEdges"/><rect fill="#1c2d5e" x="1403" y="684.7" width="36.6" height="24.65" shape-rendering="crispEdges"/><rect fill="#1c2d5e" x="1439.6" y="684.7" width="97.6" height="24.65" shape-rendering="crispEdges"/><rect fill="#1c2d5e" x="1537.2" y="684.7" width="24.4" height="24.65" shape-rendering="crispEdges"/><rect fill="#1c2d5e" x="1561.6" y="684.7" width="12.2" height="24.65" shape-rendering="crispEdges"/><rect fill="#1c2d5e" x="1573.8" y="684.7" width="12.2" height="24.65" shape-rendering="crispEdges"/><rect fill="#1c2d5e" x="1586" y="684.7" width="24.4" height="24.65" shape-rendering="crispEdges"/><rect fill="#1c2d5e" x="1610.4" y="684.7" width="85.4" height="24.65" shape-rendering="crispEdges"/><rect fill="#1c2d5e" x="1695.8" y="684.7" width="12.2" height="24.65" shape-rendering="crispEdges"/><rect fill="#1c2d5e" x="0" y="709.1" width="24.4" height="24.65" shape-rendering="crispEdges"/><rect fill="#1c2d5e" x="24.4" y="709.1" width="12.2" height="24.65" shape-rendering="crispEdges"/><rect fill="#1c2d5e" x="36.6" y="709.1" width="85.4" height="24.65" shape-rendering="crispEdges"/><rect fill="#1c2d5e" x="122" y="709.1" width="36.6" height="24.65" shape-rendering="crispEdges"/><rect fill="#1c2d5e" x="158.6" y="709.1" width="48.8" height="24.65" shape-rendering="crispEdges"/><rect fill="#1c2d5e" x="207.4" y="709.1" width="36.6" height="24.65" shape-rendering="crispEdges"/><rect fill="#1c2d5e" x="244" y="709.1" width="231.8" height="24.65" shape-rendering="crispEdges"/><rect fill="#1c2d5e" x="475.8" y="709.1" width="36.6" height="24.65" shape-rendering="crispEdges"/><rect fill="#1c2d5e" x="512.4" y="709.1" width="97.6" height="24.65" shape-rendering="crispEdges"/><rect fill="#1c2d5e" x="610" y="709.1" width="36.6" height="24.65" shape-rendering="crispEdges"/><rect fill="#1c2d5e" x="646.6" y="709.1" width="85.4" height="24.65" shape-rendering="crispEdges"/><rect fill="#1c2d5e" x="732" y="709.1" width="36.6" height="24.65" shape-rendering="crispEdges"/><rect fill="#1c2d5e" x="768.6" y="709.1" width="219.6" height="24.65" shape-rendering="crispEdges"/><rect fill="#1c2d5e" x="988.2" y="709.1" width="36.6" height="24.65" shape-rendering="crispEdges"/><rect fill="#1c2d5e" x="1024.8" y="709.1" width="85.4" height="24.65" shape-rendering="crispEdges"/><rect fill="#1c2d5e" x="1110.2" y="709.1" width="597.8" height="24.65" shape-rendering="crispEdges"/>
    <g class="terminal-2344434556-matrix">
    <text class="terminal-2344434556-r1" x="1708" y="20" textLength="12.2" clip-path="url(#terminal-2344434556-line-0)">
</text><text class="terminal-2344434556-r1" x="1708" y="44.4" textLength="12.2" clip-path="url(#terminal-2344434556-line-1)">
</text><text class="terminal-2344434556-r1" x="1708" y="68.8" textLength="12.2" clip-path="url(#terminal-2344434556-line-2)">
</text><text class="terminal-2344434556-r1" x="1708" y="93.2" textLength="12.2" clip-path="url(#terminal-2344434556-line-3)">
</text><text class="terminal-2344434556-r1" x="1708" y="117.6" textLength="12.2" clip-path="url(#terminal-2344434556-line-4)">
</text><text class="terminal-2344434556-r1" x="1708" y="142" textLength="12.2" clip-path="url(#terminal-2344434556-line-5)">
</text><text class="terminal-2344434556-r1" x="1708" y="166.4" textLength="12.2" clip-path="url(#terminal-2344434556-line-6)">
</text><text class="terminal-2344434556-r1" x="1708" y="190.8" textLength="12.2" clip-path="url(#terminal-2344434556-line-7)">
</text><text class="terminal-2344434556-r1" x="1708" y="215.2" textLength="12.2" clip-path="url(#terminal-2344434556-line-8)">
</text><text class="terminal-2344434556-r1" x="1708" y="239.6" textLength="12.2" clip-path="url(#terminal-2344434556-line-9)">
</text><text class="terminal-2344434556-r1" x="1708" y="264" textLength="12.2" clip-path="url(#terminal-2344434556-line-10)">
</text><text class="terminal-2344434556-r1" x="1708" y="288.4" textLength="12.2" clip-path="url(#terminal-2344434556-line-11)">
</text><text class="terminal-2344434556-r1" x="1708" y="312.8" textLength="12.2" clip-path="url(#terminal-2344434556-line-12)">
</text><text class="terminal-2344434556-r2" x="12.2" y="337.2" textLength="268.4" clip-path="url(#terminal-2344434556-line-13)">❯&#160;Show&#160;me&#160;a&#160;quick&#160;demo</text><text class="terminal-2344434556-r1" x="1708" y="337.2" textLength="12.2" clip-path="url(#terminal-2344434556-line-13)">
</text><text class="terminal-2344434556-r1" x="1708" y="361.6" textLength="12.2" clip-path="url(#terminal-2344434556-line-14)">
</text><text class="terminal-2344434556-r3" x="36.6" y="386" textLength="451.4" clip-path="url(#terminal-2344434556-line-15)">Sure&#160;--&#160;let&#160;me&#160;check&#160;something&#160;first.</text><text class="terminal-2344434556-r1" x="1708" y="386" textLength="12.2" clip-path="url(#terminal-2344434556-line-15)">
</text><text class="terminal-2344434556-r1" x="1708" y="410.4" textLength="12.2" clip-path="url(#terminal-2344434556-line-16)">
</text><text class="terminal-2344434556-r1" x="1708" y="434.8" textLength="12.2" clip-path="url(#terminal-2344434556-line-17)">
</text><text class="terminal-2344434556-r4" x="12.2" y="459.2" textLength="12.2" clip-path="url(#terminal-2344434556-line-18)">█</text><text class="terminal-2344434556-r5" x="36.6" y="459.2" textLength="390.4" clip-path="url(#terminal-2344434556-line-18)">⏺&#160;Bash({&quot;command&quot;:&#160;&quot;echo&#160;demo&quot;})</text><text class="terminal-2344434556-r1" x="1708" y="459.2" textLength="12.2" clip-path="url(#terminal-2344434556-line-18)">
</text><text class="terminal-2344434556-r4" x="12.2" y="483.6" textLength="12.2" clip-path="url(#terminal-2344434556-line-19)">█</text><text class="terminal-2344434556-r5" x="36.6" y="483.6" textLength="36.6" clip-path="url(#terminal-2344434556-line-19)">&#160;&#160;✓</text><text class="terminal-2344434556-r1" x="1708" y="483.6" textLength="12.2" clip-path="url(#terminal-2344434556-line-19)">
</text><text class="terminal-2344434556-r4" x="12.2" y="508" textLength="12.2" clip-path="url(#terminal-2344434556-line-20)">█</text><text class="terminal-2344434556-r5" x="36.6" y="508" textLength="73.2" clip-path="url(#terminal-2344434556-line-20)">&#160;&#160;demo</text><text class="terminal-2344434556-r1" x="1708" y="508" textLength="12.2" clip-path="url(#terminal-2344434556-line-20)">
</text><text class="terminal-2344434556-r1" x="1708" y="532.4" textLength="12.2" clip-path="url(#terminal-2344434556-line-21)">
</text><text class="terminal-2344434556-r3" x="36.6" y="556.8" textLength="488" clip-path="url(#terminal-2344434556-line-22)">All&#160;done&#160;--&#160;that&#x27;s&#160;a&#160;scripted&#160;demo&#160;turn.</text><text class="terminal-2344434556-r1" x="1708" y="556.8" textLength="12.2" clip-path="url(#terminal-2344434556-line-22)">
</text><text class="terminal-2344434556-r1" x="1708" y="581.2" textLength="12.2" clip-path="url(#terminal-2344434556-line-23)">
</text><text class="terminal-2344434556-r1" x="1708" y="605.6" textLength="12.2" clip-path="url(#terminal-2344434556-line-24)">
</text><text class="terminal-2344434556-r6" x="0" y="630" textLength="1708" clip-path="url(#terminal-2344434556-line-25)">▒▒▒▒▒▒▒▒▒▒▒▒▒▒▒▒▒▒▒▒▒▒▒▒▒▒▒▒▒▒▒▒▒▒▒▒▒▒▒▒▒▒▒▒▒▒▒▒▒▒▒▒▒▒▒▒▒▒▒▒▒▒▒▒▒▒▒▒▒▒▒▒▒▒▒▒▒▒▒▒▒▒▒▒▒▒▒▒▒▒▒▒▒▒▒▒▒▒▒▒▒▒▒▒▒▒▒▒▒▒▒▒▒▒▒▒▒▒▒▒▒▒▒▒▒▒▒▒▒▒▒▒▒▒▒▒▒▒▒▒</text><text class="terminal-2344434556-r1" x="1708" y="630" textLength="12.2" clip-path="url(#terminal-2344434556-line-25)">
</text><text class="terminal-2344434556-r7" x="0" y="654.4" textLength="12.2" clip-path="url(#terminal-2344434556-line-26)">╞</text><text class="terminal-2344434556-r7" x="1683.6" y="654.4" textLength="12.2" clip-path="url(#terminal-2344434556-line-26)">╡</text><text class="terminal-2344434556-r1" x="1708" y="654.4" textLength="12.2" clip-path="url(#terminal-2344434556-line-26)">
</text><text class="terminal-2344434556-r10" x="0" y="678.8" textLength="12.2" clip-path="url(#terminal-2344434556-line-27)">╔</text><text class="terminal-2344434556-r10" x="12.2" y="678.8" textLength="24.4" clip-path="url(#terminal-2344434556-line-27)">═&#160;</text><text class="terminal-2344434556-r7" x="36.6" y="678.8" textLength="61" clip-path="url(#terminal-2344434556-line-27)">SCORE</text><text class="terminal-2344434556-r10" x="97.6" y="678.8" textLength="85.4" clip-path="url(#terminal-2344434556-line-27)">&#160;══════</text><text class="terminal-2344434556-r10" x="183" y="678.8" textLength="12.2" clip-path="url(#terminal-2344434556-line-27)">╦</text><text class="terminal-2344434556-r10" x="195.2" y="678.8" textLength="24.4" clip-path="url(#terminal-2344434556-line-27)">═&#160;</text><text class="terminal-2344434556-r7" x="219.6" y="678.8" textLength="61" clip-path="url(#terminal-2344434556-line-27)">POWER</text><text class="terminal-2344434556-r10" x="280.6" y="678.8" textLength="85.4" clip-path="url(#terminal-2344434556-line-27)">&#160;══════</text><text class="terminal-2344434556-r10" x="366" y="678.8" textLength="12.2" clip-path="url(#terminal-2344434556-line-27)">╦</text><text class="terminal-2344434556-r10" x="378.2" y="678.8" textLength="24.4" clip-path="url(#terminal-2344434556-line-27)">═&#160;</text><text class="terminal-2344434556-r7" x="402.6" y="678.8" textLength="61" clip-path="url(#terminal-2344434556-line-27)">COINS</text><text class="terminal-2344434556-r10" x="463.6" y="678.8" textLength="280.6" clip-path="url(#terminal-2344434556-line-27)">&#160;══════════════════════</text><text class="terminal-2344434556-r10" x="744.2" y="678.8" textLength="12.2" clip-path="url(#terminal-2344434556-line-27)">╦</text><text class="terminal-2344434556-r10" x="756.4" y="678.8" textLength="134.2" clip-path="url(#terminal-2344434556-line-27)">═══════════</text><text class="terminal-2344434556-r10" x="890.6" y="678.8" textLength="12.2" clip-path="url(#terminal-2344434556-line-27)">╦</text><text class="terminal-2344434556-r10" x="902.8" y="678.8" textLength="24.4" clip-path="url(#terminal-2344434556-line-27)">═&#160;</text><text class="terminal-2344434556-r7" x="927.2" y="678.8" textLength="61" clip-path="url(#terminal-2344434556-line-27)">WORLD</text><text class="terminal-2344434556-r10" x="988.2" y="678.8" textLength="122" clip-path="url(#terminal-2344434556-line-27)">&#160;═════════</text><text class="terminal-2344434556-r10" x="1110.2" y="678.8" textLength="12.2" clip-path="url(#terminal-2344434556-line-27)">╦</text><text class="terminal-2344434556-r10" x="1122.4" y="678.8" textLength="24.4" clip-path="url(#terminal-2344434556-line-27)">═&#160;</text><text class="terminal-2344434556-r7" x="1146.8" y="678.8" textLength="48.8" clip-path="url(#terminal-2344434556-line-27)">TIME</text><text class="terminal-2344434556-r10" x="1195.6" y="678.8" textLength="36.6" clip-path="url(#terminal-2344434556-line-27)">&#160;══</text><text class="terminal-2344434556-r10" x="1232.2" y="678.8" textLength="12.2" clip-path="url(#terminal-2344434556-line-27)">╦</text><text class="terminal-2344434556-r10" x="1244.4" y="678.8" textLength="24.4" clip-path="url(#terminal-2344434556-line-27)">═&#160;</text><text class="terminal-2344434556-r7" x="1268.8" y="678.8" textLength="61" clip-path="url(#terminal-2344434556-line-27)">TURNS</text><text class="terminal-2344434556-r10" x="1329.8" y="678.8" textLength="48.8" clip-path="url(#terminal-2344434556-line-27)">&#160;═══</text><text class="terminal-2344434556-r10" x="1378.6" y="678.8" textLength="12.2" clip-path="url(#terminal-2344434556-line-27)">╦</text><text class="terminal-2344434556-r10" x="1390.8" y="678.8" textLength="24.4" clip-path="url(#terminal-2344434556-line-27)">═&#160;</text><text class="terminal-2344434556-r7" x="1415.2" y="678.8" textLength="61" clip-path="url(#terminal-2344434556-line-27)">TOOLS</text><text class="terminal-2344434556-r10" x="1476.2" y="678.8" textLength="85.4" clip-path="url(#terminal-2344434556-line-27)">&#160;══════</text><text class="terminal-2344434556-r10" x="1561.6" y="678.8" textLength="12.2" clip-path="url(#terminal-2344434556-line-27)">╦</text><text class="terminal-2344434556-r10" x="1573.8" y="678.8" textLength="24.4" clip-path="url(#terminal-2344434556-line-27)">═&#160;</text><text class="terminal-2344434556-r7" x="1598.2" y="678.8" textLength="61" clip-path="url(#terminal-2344434556-line-27)">PIPES</text><text class="terminal-2344434556-r10" x="1659.2" y="678.8" textLength="36.6" clip-path="url(#terminal-2344434556-line-27)">&#160;══</text><text class="terminal-2344434556-r10" x="1695.8" y="678.8" textLength="12.2" clip-path="url(#terminal-2344434556-line-27)">╗</text><text class="terminal-2344434556-r1" x="1708" y="678.8" textLength="12.2" clip-path="url(#terminal-2344434556-line-27)">
</text><text class="terminal-2344434556-r10" x="0" y="703.2" textLength="12.2" clip-path="url(#terminal-2344434556-line-28)">║</text><text class="terminal-2344434556-r4" x="24.4" y="703.2" textLength="109.8" clip-path="url(#terminal-2344434556-line-28)">550k&#160;left</text><text class="terminal-2344434556-r10" x="183" y="703.2" textLength="12.2" clip-path="url(#terminal-2344434556-line-28)">║</text><text class="terminal-2344434556-r4" x="207.4" y="703.2" textLength="36.6" clip-path="url(#terminal-2344434556-line-28)">███</text><text class="terminal-2344434556-r11" x="244" y="703.2" textLength="48.8" clip-path="url(#terminal-2344434556-line-28)">▒▒▒&#160;</text><text class="terminal-2344434556-r4" x="292.8" y="703.2" textLength="36.6" clip-path="url(#terminal-2344434556-line-28)">55%</text><text class="terminal-2344434556-r10" x="366" y="703.2" textLength="12.2" clip-path="url(#terminal-2344434556-line-28)">║</text><text class="terminal-2344434556-r12" x="390.4" y="703.2" textLength="24.4" clip-path="url(#terminal-2344434556-line-28)">●&#160;</text><text class="terminal-2344434556-r3" x="414.8" y="703.2" textLength="292.8" clip-path="url(#terminal-2344434556-line-28)">$0.0123&#160;·&#160;OR&#160;$12.40&#160;left</text><text class="terminal-2344434556-r10" x="744.2" y="703.2" textLength="12.2" clip-path="url(#terminal-2344434556-line-28)">║</text><text class="terminal-2344434556-r3" x="780.8" y="703.2" textLength="85.4" clip-path="url(#terminal-2344434556-line-28)">▐&#x27;o~o&#x27;▌</text><text class="terminal-2344434556-r10" x="890.6" y="703.2" textLength="12.2" clip-path="url(#terminal-2344434556-line-28)">║</text><text class="terminal-2344434556-r13" x="915" y="703.2" textLength="170.8" clip-path="url(#terminal-2344434556-line-28)">project&#160;·&#160;main</text><text class="terminal-2344434556-r10" x="1110.2" y="703.2" textLength="12.2" clip-path="url(#terminal-2344434556-line-28)">║</text><text class="terminal-2344434556-r13" x="1134.6" y="703.2" textLength="48.8" clip-path="url(#terminal-2344434556-line-28)">0:42</text><text class="terminal-2344434556-r10" x="1232.2" y="703.2" textLength="12.2" clip-path="url(#terminal-2344434556-line-28)">║</text><text class="terminal-2344434556-r12" x="1256.6" y="703.2" textLength="36.6" clip-path="url(#terminal-2344434556-line-28)">♥×&#160;</text><text class="terminal-2344434556-r3" x="1293.2" y="703.2" textLength="24.4" clip-path="url(#terminal-2344434556-line-28)">03</text><text class="terminal-2344434556-r10" x="1378.6" y="703.2" textLength="12.2" clip-path="url(#terminal-2344434556-line-28)">║</text><text class="terminal-2344434556-r12" x="1403" y="703.2" textLength="36.6" clip-path="url(#terminal-2344434556-line-28)">★×&#160;</text><text class="terminal-2344434556-r4" x="1439.6" y="703.2" textLength="97.6" clip-path="url(#terminal-2344434556-line-28)">41&#160;tools</text><text class="terminal-2344434556-r10" x="1561.6" y="703.2" textLength="12.2" clip-path="url(#terminal-2344434556-line-28)">║</text><text class="terminal-2344434556-r4" x="1586" y="703.2" textLength="24.4" clip-path="url(#terminal-2344434556-line-28)">or</text><text class="terminal-2344434556-r10" x="1695.8" y="703.2" textLength="12.2" clip-path="url(#terminal-2344434556-line-28)">║</text><text class="terminal-2344434556-r1" x="1708" y="703.2" textLength="12.2" clip-path="url(#terminal-2344434556-line-28)">
</text><text class="terminal-2344434556-r10" x="0" y="727.6" textLength="24.4" clip-path="url(#terminal-2344434556-line-29)">╚═</text><text class="terminal-2344434556-r3" x="36.6" y="727.6" textLength="73.2" clip-path="url(#terminal-2344434556-line-29)">⏩&#160;auto</text><text class="terminal-2344434556-r10" x="122" y="727.6" textLength="36.6" clip-path="url(#terminal-2344434556-line-29)">&#160;═&#160;</text><text class="terminal-2344434556-r3" x="158.6" y="727.6" textLength="48.8" clip-path="url(#terminal-2344434556-line-29)">high</text><text class="terminal-2344434556-r10" x="207.4" y="727.6" textLength="36.6" clip-path="url(#terminal-2344434556-line-29)">&#160;═&#160;</text><text class="terminal-2344434556-r3" x="244" y="727.6" textLength="231.8" clip-path="url(#terminal-2344434556-line-29)">▸&#160;or:demo/atlas-pro</text><text class="terminal-2344434556-r10" x="475.8" y="727.6" textLength="36.6" clip-path="url(#terminal-2344434556-line-29)">&#160;═&#160;</text><text class="terminal-2344434556-r3" x="512.4" y="727.6" textLength="97.6" clip-path="url(#terminal-2344434556-line-29)">agents&#160;2</text><text class="terminal-2344434556-r10" x="610" y="727.6" textLength="36.6" clip-path="url(#terminal-2344434556-line-29)">&#160;═&#160;</text><text class="terminal-2344434556-r3" x="646.6" y="727.6" textLength="85.4" clip-path="url(#terminal-2344434556-line-29)">↓&#160;4&#160;new</text><text class="terminal-2344434556-r10" x="732" y="727.6" textLength="36.6" clip-path="url(#terminal-2344434556-line-29)">&#160;═&#160;</text><text class="terminal-2344434556-r13" x="768.6" y="727.6" textLength="219.6" clip-path="url(#terminal-2344434556-line-29)">⌂&#160;~/project&#160;(main)</text><text class="terminal-2344434556-r10" x="988.2" y="727.6" textLength="36.6" clip-path="url(#terminal-2344434556-line-29)">&#160;═&#160;</text><text class="terminal-2344434556-r4" x="1024.8" y="727.6" textLength="85.4" clip-path="url(#terminal-2344434556-line-29)">MCP&#160;3/3</text><text class="terminal-2344434556-r10" x="1110.2" y="727.6" textLength="597.8" clip-path="url(#terminal-2344434556-line-29)">&#160;═══════════════════════════════════════════════╝</text>
    </g>
    </g>
</svg>
