<svg class="rich-terminal" viewBox="0 0 1238 342.79999999999995" xmlns="http://www.w3.org/2000/svg">
    <!-- Generated with Rich https://www.textualize.io -->
    <style>

    @font-face {
        font-family: "Fira Code";
        src: local("FiraCode-Regular"),
                url("https://cdnjs.cloudflare.com/ajax/libs/firacode/6.2.0/woff2/FiraCode-Regular.woff2") format("woff2"),
                url("https://cdnjs.cloudflare.com/ajax/libs/firacode/6.2.0/woff/FiraCode-Regular.woff") format("woff");
        font-style: normal;
        font-weight: 400;
    }
    @font-face {
        font-family: "Fira Code";
        src: local("FiraCode-Bold"),
                url("https://cdnjs.cloudflare.com/ajax/libs/firacode/6.2.0/woff2/FiraCode-Bold.woff2") format("woff2"),
                url("https://cdnjs.cloudflare.com/ajax/libs/firacode/6.2.0/woff/FiraCode-Bold.woff") format("woff");
        font-style: bold;
        font-weight: 700;
    }

    .terminal-2361522118-matrix {
        font-family: Fira Code, monospace;
        font-size: 20px;
        line-height: 24.4px;
        font-variant-east-asian: full-width;
    }

    .terminal-2361522118-title {
        font-size: 18px;
        font-weight: bold;
        font-family: arial;
    }

    .terminal-2361522118-r1 { fill: #c5c8c6 }
.terminal-2361522118-r2 { fill: #2f4a73 }
.terminal-2361522118-r3 { fill: #f09a2a;font-weight: bold }
.terminal-2361522118-r4 { fill: #121212 }
.terminal-2361522118-r5 { fill: #e0e0e0 }
.terminal-2361522118-r6 { fill: #4f79b5 }
.terminal-2361522118-r7 { fill: #c9d8ec }
.terminal-2361522118-r8 { fill: #58c27d }
.terminal-2361522118-r9 { fill: #55698a }
.terminal-2361522118-r10 { fill: #f09a2a }
.terminal-2361522118-r11 { fill: #6f86a6 }
.terminal-2361522118-r12 { fill: #f2c14e }
    </style>

    <defs>
    <clipPath id="terminal-2361522118-clip-terminal">
      <rect x="0" y="0" width="1219.0" height="291.79999999999995" />
    </clipPath>
    <clipPath id="terminal-2361522118-line-0">
    <rect x="0" y="1.5" width="1220" height="24.65"/>
            </clipPath>
<clipPath id="terminal-2361522118-line-1">
    <rect x="0" y="25.9" width="1220" height="24.65"/>
            </clipPath>
<clipPath id="terminal-2361522118-line-2">
    <rect x="0" y="50.3" width="1220" height="24.65"/>
            </clipPath>
<clipPath id="terminal-2361522118-line-3">
    <rect x="0" y="74.7" width="1220" height="24.65"/>
            </clipPath>
<clipPath id="terminal-2361522118-line-4">
    <rect x="0" y="99.1" width="1220" height="24.65"/>
            </clipPath>
<clipPath id="terminal-2361522118-line-5">
    <rect x="0" y="123.5" width="1220" height="24.65"/>
            </clipPath>
<clipPath id="terminal-2361522118-line-6">
    <rect x="0" y="147.9" width="1220" height="24.65"/>
            </clipPath>
<clipPath id="terminal-2361522118-line-7">
    <rect x="0" y="172.3" width="1220" height="24.65"/>
            </clipPath>
<clipPath id="terminal-2361522118-line-8">
    <rect x="0" y="196.7" width="1220" height="24.65"/>
            </clipPath>
<clipPath id="terminal-2361522118-line-9">
    <rect x="0" y="221.1" width="1220" height="24.65"/>
            </clipPath>
<clipPath id="terminal-2361522118-line-10">
    <rect x="0" y="245.5" width="1220" height="24.65"/>
            </clipPath>
    </defs>

    <rect fill="#292929" stroke="rgba(255,255,255,0.35)" stroke-width="1" x="1" y="1" width="1236" height="340.8" rx="8"/><text class="terminal-2361522118-title" fill="#c5c8c6" text-anchor="middle" x="618" y="27">halo&#160;--&#160;metroid-hud-face-writing</text>
            <g transform="translate(26,22)">
            <circle cx="0" cy="0" r="7" fill="#ff5f57"/>
            <circle cx="22" cy="0" r="7" fill="#febc2e"/>
            <circle cx="44" cy="0" r="7" fill="#28c840"/>
            </g>
        
    <g transform="translate(9, 41)" clip-path="url(#terminal-2361522118-clip-terminal)">
    <rect fill="#0a1220" x="0" y="1.5" width="1220" height="24.65" shape-rendering="crispEdges"/><rect fill="#0a1220" x="0" y="25.9" width="1220" height="24.65" shape-rendering="crispEdges"/><rect fill="#0a1220" x="0" y="50.3" width="1220" height="24.65" shape-rendering="crispEdges"/><rect fill="#0a1220" x="0" y="74.7" width="1220" height="24.65" shape-rendering="crispEdges"/><rect fill="#0a1220" x="0" y="99.1" width="1220" height="24.65" shape-rendering="crispEdges"/><rect fill="#0a1220" x="0" y="123.5" width="1220" height="24.65" shape-rendering="crispEdges"/><rect fill="#0a1220" x="0" y="147.9" width="1220" height="24.65" shape-rendering="crispEdges"/><rect fill="#101b2f" x="0" y="172.3" width="1220" height="24.65" shape-rendering="crispEdges"/><rect fill="#101b2f" x="0" y="196.7" width="12.2" height="24.65" shape-rendering="crispEdges"/><rect fill="#101b2f" x="12.2" y="196.7" width="12.2" height="24.65" shape-rendering="crispEdges"/><rect fill="#101b2f" x="24.4" y="196.7" width="12.2" height="24.65" shape-rendering="crispEdges"/><rect fill="#e0e0e0" x="36.6" y="196.7" width="12.2" height="24.65" shape-rendering="crispEdges"/><rect fill="#192337" x="48.8" y="196.7" width="1134.6" height="24.65" shape-rendering="crispEdges"/><rect fill="#101b2f" x="1183.4" y="196.7" width="12.2" height="24.65" shape-rendering="crispEdges"/><rect fill="#101b2f" x="1195.6" y="196.7" width="12.2" height="24.65" shape-rendering="crispEdges"/><rect fill="#101b2f" x="1207.8" y="196.7" width="12.2" height="24.65" shape-rendering="crispEdges"/><rect fill="#17263f" x="0" y="221.1" width="12.2" height="24.65" shape-rendering="crispEdges"/><rect fill="#17263f" x="12.2" y="221.1" width="24.4" height="24.65" shape-rendering="crispEdges"/><rect fill="#17263f" x="36.6" y="221.1" width="73.2" height="24.65" shape-rendering="crispEdges"/><rect fill="#17263f" x="109.8" y="221.1" width="97.6" height="24.65" shape-rendering="crispEdges"/><rect fill="#17263f" x="207.4" y="221.1" width="12.2" height="24.65" shape-rendering="crispEdges"/><rect fill="#17263f" x="219.6" y="221.1" width="24.4" height="24.65" shape-rendering="crispEdges"/><rect fill="#17263f" x="244" y="221.1" width="85.4" height="24.65" shape-rendering="crispEdges"/><rect fill="#17263f" x="329.4" y="221.1" width="36.6" height="24.65" shape-rendering="crispEdges"/><rect fill="#17263f" x="366" y="221.1" width="12.2" height="24.65" shape-rendering="crispEdges"/><rect fill="#17263f" x="378.2" y="221.1" width="24.4" height="24.65" shape-rendering="crispEdges"/><rect fill="#17263f" x="402.6" y="221.1" width="85.4" height="24.65" shape-rendering="crispEdges"/><rect fill="#17263f" x="488" y="221.1" width="36.6" height="24.65" shape-rendering="crispEdges"/><rect fill="#17263f" x="524.6" y="221.1" width="12.2" height="24.65" shape-rendering="crispEdges"/><rect fill="#17263f" x="536.8" y="221.1" width="24.4" height="24.65" shape-rendering="crispEdges"/><rect fill="#17263f" x="561.2" y="221.1" width="61" height="24.65" shape-rendering="crispEdges"/><rect fill="#17263f" x="622.2" y="221.1" width="61" height="24.65" shape-rendering="crispEdges"/><rect fill="#17263f" x="683.2" y="221.1" width="12.2" height="24.65" shape-rendering="crispEdges"/><rect fill="#17263f" x="695.4" y="221.1" width="109.8" height="24.65" shape-rendering="crispEdges"/><rect fill="#17263f" x="805.2" y="221.1" width="12.2" height="24.65" shape-rendering="crispEdges"/><rect fill="#17263f" x="817.4" y="221.1" width="24.4" height="24.65" shape-rendering="crispEdges"/><rect fill="#17263f" x="841.8" y="221.1" width="48.8" height="24.65" shape-rendering="crispEdges"/><rect fill="#17263f" x="890.6" y="221.1" width="48.8" height="24.65" shape-rendering="crispEdges"/><rect fill="#17263f" x="939.4" y="221.1" width="12.2" height="24.65" shape-rendering="crispEdges"/><rect fill="#17263f" x="951.6" y="221.1" width="24.4" height="24.65" shape-rendering="crispEdges"/><rect fill="#17263f" x="976" y="221.1" width="48.8" height="24.65" shape-rendering="crispEdges"/><rect fill="#17263f" x="1024.8" y="221.1" width="36.6" height="24.65" shape-rendering="crispEdges"/><rect fill="#17263f" x="1061.4" y="221.1" width="12.2" height="24.65" shape-rendering="crispEdges"/><rect fill="#17263f" x="1073.6" y="221.1" width="24.4" height="24.65" shape-rendering="crispEdges"/><rect fill="#17263f" x="1098" y="221.1" width="48.8" height="24.65" shape-rendering="crispEdges"/><rect fill="#17263f" x="1146.8" y="221.1" width="61" height="24.65" shape-rendering="crispEdges"/><rect fill="#17263f" x="1207.8" y="221.1" width="12.2" height="24.65" shape-rendering="crispEdges"/><rect fill="#17263f" x="0" y="245.5" width="12.2" height="24.65" shape-rendering="crispEdges"/><rect fill="#17263f" x="12.2" y="245.5" width="12.2" height="24.65" shape-rendering="crispEdges"/><rect fill="#17263f" x="24.4" y="245.5" width="73.2" height="24.65" shape-rendering="crispEdges"/><rect fill="#17263f" x="97.6" y="245.5" width="61" height="24.65" shape-rendering="crispEdges"/><rect fill="#17263f" x="158.6" y="245.5" width="36.6" height="24.65" shape-rendering="crispEdges"/><rect fill="#17263f" x="195.2" y="245.5" width="12.2" height="24.65" shape-rendering="crispEdges"/><rect fill="#17263f" x="207.4" y="245.5" width="12.2" height="24.65" shape-rendering="crispEdges"/><rect fill="#17263f" x="219.6" y="245.5" width="12.2" height="24.65" shape-rendering="crispEdges"/><rect fill="#17263f" x="231.8" y="245.5" width="109.8" height="24.65" shape-rendering="crispEdges"/><rect fill="#17263f" x="341.6" y="245.5" width="24.4" height="24.65" shape-rendering="crispEdges"/><rect fill="#17263f" x="366" y="245.5" width="12.2" height="24.65" shape-rendering="crispEdges"/><rect fill="#17263f" x="378.2" y="245.5" width="12.2" height="24.65" shape-rendering="crispEdges"/><rect fill="#17263f" x="390.4" y="245.5" width="24.4" height="24.65" shape-rendering="crispEdges"/><rect fill="#17263f" x="414.8" y="245.5" width="24.4" height="24.65" shape-rendering="crispEdges"/><rect fill="#17263f" x="439.2" y="245.5" width="85.4" height="24.65" shape-rendering="crispEdges"/><rect fill="#17263f" x="524.6" y="245.5" width="12.2" height="24.65" shape-rendering="crispEdges"/><rect fill="#17263f" x="536.8" y="245.5" width="12.2" height="24.65" shape-rendering="crispEdges"/><rect fill="#17263f" x="549" y="245.5" width="24.4" height="24.65" shape-rendering="crispEdges"/><rect fill="#17263f" x="573.4" y="245.5" width="97.6" height="24.65" shape-rendering="crispEdges"/><rect fill="#17263f" x="671" y="245.5" width="12.2" height="24.65" shape-rendering="crispEdges"/><rect fill="#17263f" x="683.2" y="245.5" width="12.2" height="24.65" shape-rendering="crispEdges"/><rect fill="#17263f" x="695.4" y="245.5" width="24.4" height="24.65" shape-rendering="crispEdges"/><rect fill="#17263f" x="719.8" y="245.5" width="61" height="24.65" shape-rendering="crispEdges"/><rect fill="#17263f" x="780.8" y="245.5" width="24.4" height="24.65" shape-rendering="crispEdges"/><rect fill="#17263f" x="805.2" y="245.5" width="12.2" height="24.65" shape-rendering="crispEdges"/><rect fill="#17263f" x="817.4" y="245.5" width="12.2" height="24.65" shape-rendering="crispEdges"/><rect fill="#17263f" x="829.6" y="245.5" width="85.4" height="24.65" shape-rendering="crispEdges"/><rect fill="#17263f" x="915" y="245.5" width="24.4" height="24.65" shape-rendering="crispEdges"/><rect fill="#17263f" x="939.4" y="245.5" width="12.2" height="24.65" shape-rendering="crispEdges"/><rect fill="#17263f" x="951.6" y="245.5" width="12.2" height="24.65" shape-rendering="crispEdges"/><rect fill="#17263f" x="963.8" y="245.5" width="24.4" height="24.65" shape-rendering="crispEdges"/><rect fill="#17263f" x="988.2" y="245.5" width="73.2" height="24.65" shape-rendering="crispEdges"/><rect fill="#17263f" x="1061.4" y="245.5" width="12.2" height="24.65" shape-rendering="crispEdges"/><rect fill="#17263f" x="1073.6" y="245.5" width="12.2" height="24.65" shape-rendering="crispEdges"/><rect fill="#17263f" x="1085.8" y="245.5" width="24.4" height="24.65" shape-rendering="crispEdges"/><rect fill="#17263f" x="1110.2" y="245.5" width="85.4" height="24.65" shape-rendering="crispEdges"/><rect fill="#17263f" x="1195.6" y="245.5" width="12.2" height="24.65" shape-rendering="crispEdges"/><rect fill="#17263f" x="1207.8" y="245.5" width="12.2" height="24.65" shape-rendering="crispEdges"/><rect fill="#17263f" x="0" y="269.9" width="24.4" height="24.65" shape-rendering="crispEdges"/><rect fill="#17263f" x="24.4" y="269.9" width="12.2" height="24.65" shape-rendering="crispEdges"/><rect fill="#17263f" x="36.6" y="269.9" width="219.6" height="24.65" shape-rendering="crispEdges"/><rect fill="#17263f" x="256.2" y="269.9" width="36.6" height="24.65" shape-rendering="crispEdges"/><rect fill="#17263f" x="292.8" y="269.9" width="85.4" height="24.65" shape-rendering="crispEdges"/><rect fill="#17263f" x="378.2" y="269.9" width="36.6" height="24.65" shape-rendering="crispEdges"/><rect fill="#17263f" x="414.8" y="269.9" width="48.8" height="24.65" shape-rendering="crispEdges"/><rect fill="#17263f" x="463.6" y="269.9" width="36.6" height="24.65" shape-rendering="crispEdges"/><rect fill="#17263f" x="500.2" y="269.9" width="231.8" height="24.65" shape-rendering="crispEdges"/><rect fill="#17263f" x="732" y="269.9" width="36.6" height="24.65" shape-rendering="crispEdges"/><rect fill="#17263f" x="768.6" y="269.9" width="97.6" height="24.65" shape-rendering="crispEdges"/><rect fill="#17263f" x="866.2" y="269.9" width="36.6" height="24.65" shape-rendering="crispEdges"/><rect fill="#17263f" x="902.8" y="269.9" width="219.6" height="24.65" shape-rendering="crispEdges"/><rect fill="#17263f" x="1122.4" y="269.9" width="36.6" height="24.65" shape-rendering="crispEdges"/><rect fill="#17263f" x="1159" y="269.9" width="36.6" height="24.65" shape-rendering="crispEdges"/><rect fill="#17263f" x="1195.6" y="269.9" width="24.4" height="24.65" shape-rendering="crispEdges"/>
    <g class="terminal-2361522118-matrix">
    <text class="terminal-2361522118-r1" x="1220" y="20" textLength="12.2" clip-path="url(#terminal-2361522118-line-0)">
</text><text class="terminal-2361522118-r1" x="1220" y="44.4" textLength="12.2" clip-path="url(#terminal-2361522118-line-1)">
</text><text class="terminal-2361522118-r1" x="1220" y="68.8" textLength="12.2" clip-path="url(#terminal-2361522118-line-2)">
</text><text class="terminal-2361522118-r1" x="1220" y="93.2" textLength="12.2" clip-path="url(#terminal-2361522118-line-3)">
</text><text class="terminal-2361522118-r1" x="1220" y="117.6" textLength="12.2" clip-path="url(#terminal-2361522118-line-4)">
</text><text class="terminal-2361522118-r1" x="1220" y="142" textLength="12.2" clip-path="url(#terminal-2361522118-line-5)">
</text><text class="terminal-2361522118-r1" x="1220" y="166.4" textLength="12.2" clip-path="url(#terminal-2361522118-line-6)">
</text><text class="terminal-2361522118-r2" x="0" y="190.8" textLength="1220" clip-path="url(#terminal-2361522118-line-7)">╍╍╍╍╍╍╍╍╍╍╍╍╍╍╍╍╍╍╍╍╍╍╍╍╍╍╍╍╍╍╍╍╍╍╍╍╍╍╍╍╍╍╍╍╍╍╍╍╍╍╍╍╍╍╍╍╍╍╍╍╍╍╍╍╍╍╍╍╍╍╍╍╍╍╍╍╍╍╍╍╍╍╍╍╍╍╍╍╍╍╍╍╍╍╍╍╍╍╍╍</text><text class="terminal-2361522118-r1" x="1220" y="190.8" textLength="12.2" clip-path="url(#terminal-2361522118-line-7)">
</text><text class="terminal-2361522118-r3" x="0" y="215.2" textLength="12.2" clip-path="url(#terminal-2361522118-line-8)">◖</text><text class="terminal-2361522118-r3" x="1195.6" y="215.2" textLength="12.2" clip-path="url(#terminal-2361522118-line-8)">◗</text><text class="terminal-2361522118-r1" x="1220" y="215.2" textLength="12.2" clip-path="url(#terminal-2361522118-line-8)">
</text><text class="terminal-2361522118-r6" x="0" y="239.6" textLength="12.2" clip-path="url(#terminal-2361522118-line-9)">┌</text><text class="terminal-2361522118-r6" x="12.2" y="239.6" textLength="24.4" clip-path="url(#terminal-2361522118-line-9)">─&#160;</text><text class="terminal-2361522118-r3" x="36.6" y="239.6" textLength="73.2" clip-path="url(#terminal-2361522118-line-9)">ENERGY</text><text class="terminal-2361522118-r6" x="109.8" y="239.6" textLength="97.6" clip-path="url(#terminal-2361522118-line-9)">&#160;───────</text><text class="terminal-2361522118-r6" x="207.4" y="239.6" textLength="12.2" clip-path="url(#terminal-2361522118-line-9)">┬</text><text class="terminal-2361522118-r6" x="219.6" y="239.6" textLength="24.4" clip-path="url(#terminal-2361522118-line-9)">─&#160;</text><text class="terminal-2361522118-r3" x="244" y="239.6" textLength="85.4" clip-path="url(#terminal-2361522118-line-9)">RESERVE</text><text class="terminal-2361522118-r6" x="329.4" y="239.6" textLength="36.6" clip-path="url(#terminal-2361522118-line-9)">&#160;──</text><text class="terminal-2361522118-r6" x="366" y="239.6" textLength="12.2" clip-path="url(#terminal-2361522118-line-9)">┬</text><text class="terminal-2361522118-r6" x="378.2" y="239.6" textLength="24.4" clip-path="url(#terminal-2361522118-line-9)">─&#160;</text><text class="terminal-2361522118-r3" x="402.6" y="239.6" textLength="85.4" clip-path="url(#terminal-2361522118-line-9)">MISSILE</text><text class="terminal-2361522118-r6" x="488" y="239.6" textLength="36.6" clip-path="url(#terminal-2361522118-line-9)">&#160;──</text><text class="terminal-2361522118-r6" x="524.6" y="239.6" textLength="12.2" clip-path="url(#terminal-2361522118-line-9)">┬</text><text class="terminal-2361522118-r6" x="536.8" y="239.6" textLength="24.4" clip-path="url(#terminal-2361522118-line-9)">─&#160;</text><text class="terminal-2361522118-r3" x="561.2" y="239.6" textLength="61" clip-path="url(#terminal-2361522118-line-9)">SUPER</text><text class="terminal-2361522118-r6" x="622.2" y="239.6" textLength="61" clip-path="url(#terminal-2361522118-line-9)">&#160;────</text><text class="terminal-2361522118-r6" x="683.2" y="239.6" textLength="12.2" clip-path="url(#terminal-2361522118-line-9)">┬</text><text class="terminal-2361522118-r6" x="695.4" y="239.6" textLength="109.8" clip-path="url(#terminal-2361522118-line-9)">─────────</text><text class="terminal-2361522118-r6" x="805.2" y="239.6" textLength="12.2" clip-path="url(#terminal-2361522118-line-9)">┬</text><text class="terminal-2361522118-r6" x="817.4" y="239.6" textLength="24.4" clip-path="url(#terminal-2361522118-line-9)">─&#160;</text><text class="terminal-2361522118-r3" x="841.8" y="239.6" textLength="48.8" clip-path="url(#terminal-2361522118-line-9)">COST</text><text class="terminal-2361522118-r6" x="890.6" y="239.6" textLength="48.8" clip-path="url(#terminal-2361522118-line-9)">&#160;───</text><text class="terminal-2361522118-r6" x="939.4" y="239.6" textLength="12.2" clip-path="url(#terminal-2361522118-line-9)">┬</text><text class="terminal-2361522118-r6" x="951.6" y="239.6" textLength="24.4" clip-path="url(#terminal-2361522118-line-9)">─&#160;</text><text class="terminal-2361522118-r3" x="976" y="239.6" textLength="48.8" clip-path="url(#terminal-2361522118-line-9)">BEAM</text><text class="terminal-2361522118-r6" x="1024.8" y="239.6" textLength="36.6" clip-path="url(#terminal-2361522118-line-9)">&#160;──</text><text class="terminal-2361522118-r6" x="1061.4" y="239.6" textLength="12.2" clip-path="url(#terminal-2361522118-line-9)">┬</text><text class="terminal-2361522118-r6" x="1073.6" y="239.6" textLength="24.4" clip-path="url(#terminal-2361522118-line-9)">─&#160;</text><text class="terminal-2361522118-r3" x="1098" y="239.6" textLength="48.8" clip-path="url(#terminal-2361522118-line-9)">AREA</text><text class="terminal-2361522118-r6" x="1146.8" y="239.6" textLength="61" clip-path="url(#terminal-2361522118-line-9)">&#160;────</text><text class="terminal-2361522118-r6" x="1207.8" y="239.6" textLength="12.2" clip-path="url(#terminal-2361522118-line-9)">┐</text><text class="terminal-2361522118-r1" x="1220" y="239.6" textLength="12.2" clip-path="url(#terminal-2361522118-line-9)">
</text><text class="terminal-2361522118-r6" x="0" y="264" textLength="12.2" clip-path="url(#terminal-2361522118-line-10)">│</text><text class="terminal-2361522118-r8" x="24.4" y="264" textLength="73.2" clip-path="url(#terminal-2361522118-line-10)">■■■■■■</text><text class="terminal-2361522118-r9" x="97.6" y="264" textLength="61" clip-path="url(#terminal-2361522118-line-10)">□□□□&#160;</text><text class="terminal-2361522118-r8" x="158.6" y="264" textLength="36.6" clip-path="url(#terminal-2361522118-line-10)">55%</text><text class="terminal-2361522118-r6" x="207.4" y="264" textLength="12.2" clip-path="url(#terminal-2361522118-line-10)">│</text><text class="terminal-2361522118-r8" x="231.8" y="264" textLength="109.8" clip-path="url(#terminal-2361522118-line-10)">550k&#160;left</text><text class="terminal-2361522118-r6" x="366" y="264" textLength="12.2" clip-path="url(#terminal-2361522118-line-10)">│</text><text class="terminal-2361522118-r10" x="390.4" y="264" textLength="24.4" clip-path="url(#terminal-2361522118-line-10)">▲&#160;</text><text class="terminal-2361522118-r7" x="414.8" y="264" textLength="24.4" clip-path="url(#terminal-2361522118-line-10)">03</text><text class="terminal-2361522118-r6" x="524.6" y="264" textLength="12.2" clip-path="url(#terminal-2361522118-line-10)">│</text><text class="terminal-2361522118-r10" x="549" y="264" textLength="24.4" clip-path="url(#terminal-2361522118-line-10)">◆&#160;</text><text class="terminal-2361522118-r8" x="573.4" y="264" textLength="97.6" clip-path="url(#terminal-2361522118-line-10)">41&#160;tools</text><text class="terminal-2361522118-r6" x="683.2" y="264" textLength="12.2" clip-path="url(#terminal-2361522118-line-10)">│</text><text class="terminal-2361522118-r8" x="719.8" y="264" textLength="61" clip-path="url(#terminal-2361522118-line-10)">◖&lt;=&gt;◗</text><text class="terminal-2361522118-r6" x="805.2" y="264" textLength="12.2" clip-path="url(#terminal-2361522118-line-10)">│</text><text class="terminal-2361522118-r7" x="829.6" y="264" textLength="85.4" clip-path="url(#terminal-2361522118-line-10)">$0.0123</text><text class="terminal-2361522118-r6" x="939.4" y="264" textLength="12.2" clip-path="url(#terminal-2361522118-line-10)">│</text><text class="terminal-2361522118-r8" x="963.8" y="264" textLength="24.4" clip-path="url(#terminal-2361522118-line-10)">or</text><text class="terminal-2361522118-r6" x="1061.4" y="264" textLength="12.2" clip-path="url(#terminal-2361522118-line-10)">│</text><text class="terminal-2361522118-r10" x="1085.8" y="264" textLength="24.4" clip-path="url(#terminal-2361522118-line-10)">◇&#160;</text><text class="terminal-2361522118-r11" x="1110.2" y="264" textLength="85.4" clip-path="url(#terminal-2361522118-line-10)">project</text><text class="terminal-2361522118-r6" x="1207.8" y="264" textLength="12.2" clip-path="url(#terminal-2361522118-line-10)">│</text><text class="terminal-2361522118-r1" x="1220" y="264" textLength="12.2" clip-path="url(#terminal-2361522118-line-10)">
</text><text class="terminal-2361522118-r6" x="0" y="288.4" textLength="24.4" clip-path="url(#terminal-2361522118-line-11)">└─</text><text class="terminal-2361522118-r12" x="36.6" y="288.4" textLength="219.6" clip-path="url(#terminal-2361522118-line-11)">⠋&#160;writing&#160;0&#160;s&#160;·&#160;↓0</text><text class="terminal-2361522118-r6" x="256.2" y="288.4" textLength="36.6" clip-path="url(#terminal-2361522118-line-11)">&#160;─&#160;</text><text class="terminal-2361522118-r7" x="292.8" y="288.4" textLength="73.2" clip-path="url(#terminal-2361522118-line-11)">⏩&#160;auto</text><text class="terminal-2361522118-r6" x="378.2" y="288.4" textLength="36.6" clip-path="url(#terminal-2361522118-line-11)">&#160;─&#160;</text><text class="terminal-2361522118-r7" x="414.8" y="288.4" textLength="48.8" clip-path="url(#terminal-2361522118-line-11)">high</text><text class="terminal-2361522118-r6" x="463.6" y="288.4" textLength="36.6" clip-path="url(#terminal-2361522118-line-11)">&#160;─&#160;</text><text class="terminal-2361522118-r7" x="500.2" y="288.4" textLength="231.8" clip-path="url(#terminal-2361522118-line-11)">▸&#160;or:demo/atlas-pro</text><text class="terminal-2361522118-r6" x="732" y="288.4" textLength="36.6" clip-path="url(#terminal-2361522118-line-11)">&#160;─&#160;</text><text class="terminal-2361522118-r7" x="768.6" y="288.4" textLength="97.6" clip-path="url(#terminal-2361522118-line-11)">agents&#160;2</text><text class="terminal-2361522118-r6" x="866.2" y="288.4" textLength="36.6" clip-path="url(#terminal-2361522118-line-11)">&#160;─&#160;</text><text class="terminal-2361522118-r11" x="902.8" y="288.4" textLength="219.6" clip-path="url(#terminal-2361522118-line-11)">⌂&#160;~/project&#160;(main)</text><text class="terminal-2361522118-r6" x="1122.4" y="288.4" textLength="36.6" clip-path="url(#terminal-2361522118-line-11)">&#160;─&#160;</text><text class="terminal-2361522118-r8" x="1159" y="288.4" textLength="36.6" clip-path="url(#terminal-2361522118-line-11)">3/3</text><text class="terminal-2361522118-r6" x="1195.6" y="288.4" textLength="24.4" clip-path="url(#terminal-2361522118-line-11)">&#160;┘</text>
    </g>
    </g>
</svg>
