<svg class="rich-terminal" viewBox="0 0 1482 928.4" xmlns="http://www.w3.org/2000/svg">
    <!-- Generated with Rich https://www.textualize.io -->
    <style>

    @font-face {
        font-family: "Fira Code";
        src: local("FiraCode-Regular"),
                url("https://cdnjs.cloudflare.com/ajax/libs/firacode/6.2.0/woff2/FiraCode-Regular.woff2") format("woff2"),
                url("https://cdnjs.cloudflare.com/ajax/libs/firacode/6.2.0/woff/FiraCode-Regular.woff") format("woff");
        font-style: normal;
        font-weight: 400;
    }
    @font-face {
        font-family: "Fira Code";
        src: local("FiraCode-Bold"),
                url("https://cdnjs.cloudflare.com/ajax/libs/firacode/6.2.0/woff2/FiraCode-Bold.woff2") format("woff2"),
                url("https://cdnjs.cloudflare.com/ajax/libs/firacode/6.2.0/woff/FiraCode-Bold.woff") format("woff");
        font-style: bold;
        font-weight: 700;
    }

    .terminal-0-matrix {
        font-family: Fira Code, monospace;
        font-size: 20px;
        line-height: 24.4px;
        font-variant-east-asian: full-width;
    }

    .terminal-0-title {
        font-size: 18px;
        font-weight: bold;
        font-family: arial;
    }

    .terminal-0-r1 { fill: #c5c8c6 }
.terminal-0-r2 { fill: #5cc8fc;font-weight: bold }
.terminal-0-r3 { fill: #f4f4f4 }
.terminal-0-r4 { fill: #f8b830 }
.terminal-0-r5 { fill: #e8651a }
.terminal-0-r6 { fill: #b5471a }
.terminal-0-r7 { fill: #f8b830;font-weight: bold }
.terminal-0-r8 { fill: #121212 }
.terminal-0-r9 { fill: #727b92 }
.terminal-0-r10 { fill: #c4511f }
.terminal-0-r11 { fill: #3fb83f }
.terminal-0-r12 { fill: #6879b5 }
.terminal-0-r13 { fill: #9db0e6 }
    </style>

    <defs>
    <clipPath id="terminal-0-clip-terminal">
      <rect x="0" y="0" width="1463.0" height="877.4" />
    </clipPath>
    <clipPath id="terminal-0-line-0">
    <rect x="0" y="1.5" width="1464" height="24.65"/>
            </clipPath>
<clipPath id="terminal-0-line-1">
    <rect x="0" y="25.9" width="1464" height="24.65"/>
            </clipPath>
<clipPath id="terminal-0-line-2">
    <rect x="0" y="50.3" width="1464" height="24.65"/>
            </clipPath>
<clipPath id="terminal-0-line-3">
    <rect x="0" y="74.7" width="1464" height="24.65"/>
            </clipPath>
<clipPath id="terminal-0-line-4">
    <rect x="0" y="99.1" width="1464" height="24.65"/>
            </clipPath>
<clipPath id="terminal-0-line-5">
    <rect x="0" y="123.5" width="1464" height="24.65"/>
            </clipPath>
<clipPath id="terminal-0-line-6">
    <rect x="0" y="147.9" width="1464" height="24.65"/>
            </clipPath>
<clipPath id="terminal-0-line-7">
    <rect x="0" y="172.3" width="1464" height="24.65"/>
            </clipPath>
<clipPath id="terminal-0-line-8">
    <rect x="0" y="196.7" width="1464" height="24.65"/>
            </clipPath>
<clipPath id="terminal-0-line-9">
    <rect x="0" y="221.1" width="1464" height="24.65"/>
            </clipPath>
<clipPath id="terminal-0-line-10">
    <rect x="0" y="245.5" width="1464" height="24.65"/>
            </clipPath>
<clipPath id="terminal-0-line-11">
    <rect x="0" y="269.9" width="1464" height="24.65"/>
            </clipPath>
<clipPath id="terminal-0-line-12">
    <rect x="0" y="294.3" width="1464" height="24.65"/>
            </clipPath>
<clipPath id="terminal-0-line-13">
    <rect x="0" y="318.7" width="1464" height="24.65"/>
            </clipPath>
<clipPath id="terminal-0-line-14">
    <rect x="0" y="343.1" width="1464" height="24.65"/>
            </clipPath>
<clipPath id="terminal-0-line-15">
    <rect x="0" y="367.5" width="1464" height="24.65"/>
            </clipPath>
<clipPath id="terminal-0-line-16">
    <rect x="0" y="391.9" width="1464" height="24.65"/>
            </clipPath>
<clipPath id="terminal-0-line-17">
    <rect x="0" y="416.3" width="1464" height="24.65"/>
            </clipPath>
<clipPath id="terminal-0-line-18">
    <rect x="0" y="440.7" width="1464" height="24.65"/>
            </clipPath>
<clipPath id="terminal-0-line-19">
    <rect x="0" y="465.1" width="1464" height="24.65"/>
            </clipPath>
<clipPath id="terminal-0-line-20">
    <rect x="0" y="489.5" width="1464" height="24.65"/>
            </clipPath>
<clipPath id="terminal-0-line-21">
    <rect x="0" y="513.9" width="1464" height="24.65"/>
            </clipPath>
<clipPath id="terminal-0-line-22">
    <rect x="0" y="538.3" width="1464" height="24.65"/>
            </clipPath>
<clipPath id="terminal-0-line-23">
    <rect x="0" y="562.7" width="1464" height="24.65"/>
            </clipPath>
<clipPath id="terminal-0-line-24">
    <rect x="0" y="587.1" width="1464" height="24.65"/>
            </clipPath>
<clipPath id="terminal-0-line-25">
    <rect x="0" y="611.5" width="1464" height="24.65"/>
            </clipPath>
<clipPath id="terminal-0-line-26">
    <rect x="0" y="635.9" width="1464" height="24.65"/>
            </clipPath>
<clipPath id="terminal-0-line-27">
    <rect x="0" y="660.3" width="1464" height="24.65"/>
            </clipPath>
<clipPath id="terminal-0-line-28">
    <rect x="0" y="684.7" width="1464" height="24.65"/>
            </clipPath>
<clipPath id="terminal-0-line-29">
    <rect x="0" y="709.1" width="1464" height="24.65"/>
            </clipPath>
<clipPath id="terminal-0-line-30">
    <rect x="0" y="733.5" width="1464" height="24.65"/>
            </clipPath>
<clipPath id="terminal-0-line-31">
    <rect x="0" y="757.9" width="1464" height="24.65"/>
            </clipPath>
<clipPath id="terminal-0-line-32">
    <rect x="0" y="782.3" width="1464" height="24.65"/>
            </clipPath>
<clipPath id="terminal-0-line-33">
    <rect x="0" y="806.7" width="1464" height="24.65"/>
            </clipPath>
<clipPath id="terminal-0-line-34">
    <rect x="0" y="831.1" width="1464" height="24.65"/>
            </clipPath>
    </defs>

    <rect fill="#292929" stroke="rgba(255,255,255,0.35)" stroke-width="1" x="1" y="1" width="1480" height="926.4" rx="8"/><text class="terminal-0-title" fill="#c5c8c6" text-anchor="middle" x="740" y="27">halo</text>
            <g transform="translate(26,22)">
            <circle cx="0" cy="0" r="7" fill="#ff5f57"/>
            <circle cx="22" cy="0" r="7" fill="#febc2e"/>
            <circle cx="44" cy="0" r="7" fill="#28c840"/>
            </g>
        
    <g transform="translate(9, 41)" clip-path="url(#terminal-0-clip-terminal)">
    <rect fill="#0e1830" x="0" y="1.5" width="12.2" height="24.65" shape-rendering="crispEdges"/><rect fill="#0e1830" x="12.2" y="1.5" width="1439.6" height="24.65" shape-rendering="crispEdges"/><rect fill="#0e1830" x="1451.8" y="1.5" width="12.2" height="24.65" shape-rendering="crispEdges"/><rect fill="#0e1830" x="0" y="25.9" width="12.2" height="24.65" shape-rendering="crispEdges"/><rect fill="#0e1830" x="12.2" y="25.9" width="1439.6" height="24.65" shape-rendering="crispEdges"/><rect fill="#0e1830" x="1451.8" y="25.9" width="12.2" height="24.65" shape-rendering="crispEdges"/><rect fill="#0e1830" x="0" y="50.3" width="12.2" height="24.65" shape-rendering="crispEdges"/><rect fill="#0e1830" x="12.2" y="50.3" width="1439.6" height="24.65" shape-rendering="crispEdges"/><rect fill="#0e1830" x="1451.8" y="50.3" width="12.2" height="24.65" shape-rendering="crispEdges"/><rect fill="#0e1830" x="0" y="74.7" width="12.2" height="24.65" shape-rendering="crispEdges"/><rect fill="#0e1830" x="12.2" y="74.7" width="1439.6" height="24.65" shape-rendering="crispEdges"/><rect fill="#0e1830" x="1451.8" y="74.7" width="12.2" height="24.65" shape-rendering="crispEdges"/><rect fill="#0e1830" x="0" y="99.1" width="12.2" height="24.65" shape-rendering="crispEdges"/><rect fill="#0e1830" x="12.2" y="99.1" width="1439.6" height="24.65" shape-rendering="crispEdges"/><rect fill="#0e1830" x="1451.8" y="99.1" width="12.2" height="24.65" shape-rendering="crispEdges"/><rect fill="#0e1830" x="0" y="123.5" width="12.2" height="24.65" shape-rendering="crispEdges"/><rect fill="#0e1830" x="12.2" y="123.5" width="1439.6" height="24.65" shape-rendering="crispEdges"/><rect fill="#0e1830" x="1451.8" y="123.5" width="12.2" height="24.65" shape-rendering="crispEdges"/><rect fill="#0e1830" x="0" y="147.9" width="12.2" height="24.65" shape-rendering="crispEdges"/><rect fill="#0e1830" x="12.2" y="147.9" width="1439.6" height="24.65" shape-rendering="crispEdges"/><rect fill="#0e1830" x="1451.8" y="147.9" width="12.2" height="24.65" shape-rendering="crispEdges"/><rect fill="#0e1830" x="0" y="172.3" width="12.2" height="24.65" shape-rendering="crispEdges"/><rect fill="#0e1830" x="12.2" y="172.3" width="1439.6" height="24.65" shape-rendering="crispEdges"/><rect fill="#0e1830" x="1451.8" y="172.3" width="12.2" height="24.65" shape-rendering="crispEdges"/><rect fill="#0e1830" x="0" y="196.7" width="12.2" height="24.65" shape-rendering="crispEdges"/><rect fill="#0e1830" x="12.2" y="196.7" width="1439.6" height="24.65" shape-rendering="crispEdges"/><rect fill="#0e1830" x="1451.8" y="196.7" width="12.2" height="24.65" shape-rendering="crispEdges"/><rect fill="#0e1830" x="0" y="221.1" width="12.2" height="24.65" shape-rendering="crispEdges"/><rect fill="#0e1830" x="12.2" y="221.1" width="1439.6" height="24.65" shape-rendering="crispEdges"/><rect fill="#0e1830" x="1451.8" y="221.1" width="12.2" height="24.65" shape-rendering="crispEdges"/><rect fill="#0e1830" x="0" y="245.5" width="12.2" height="24.65" shape-rendering="crispEdges"/><rect fill="#0e1830" x="12.2" y="245.5" width="1439.6" height="24.65" shape-rendering="crispEdges"/><rect fill="#0e1830" x="1451.8" y="245.5" width="12.2" height="24.65" shape-rendering="crispEdges"/><rect fill="#0e1830" x="0" y="269.9" width="12.2" height="24.65" shape-rendering="crispEdges"/><rect fill="#0e1830" x="12.2" y="269.9" width="1439.6" height="24.65" shape-rendering="crispEdges"/><rect fill="#0e1830" x="1451.8" y="269.9" width="12.2" height="24.65" shape-rendering="crispEdges"/><rect fill="#0e1830" x="0" y="294.3" width="12.2" height="24.65" shape-rendering="crispEdges"/><rect fill="#0e1830" x="12.2" y="294.3" width="1439.6" height="24.65" shape-rendering="crispEdges"/><rect fill="#0e1830" x="1451.8" y="294.3" width="12.2" height="24.65" shape-rendering="crispEdges"/><rect fill="#0e1830" x="0" y="318.7" width="12.2" height="24.65" shape-rendering="crispEdges"/><rect fill="#0e1830" x="12.2" y="318.7" width="1439.6" height="24.65" shape-rendering="crispEdges"/><rect fill="#0e1830" x="1451.8" y="318.7" width="12.2" height="24.65" shape-rendering="crispEdges"/><rect fill="#0e1830" x="0" y="343.1" width="12.2" height="24.65" shape-rendering="crispEdges"/><rect fill="#0e1830" x="12.2" y="343.1" width="1439.6" height="24.65" shape-rendering="crispEdges"/><rect fill="#0e1830" x="1451.8" y="343.1" width="12.2" height="24.65" shape-rendering="crispEdges"/><rect fill="#0e1830" x="0" y="367.5" width="12.2" height="24.65" shape-rendering="crispEdges"/><rect fill="#0e1830" x="12.2" y="367.5" width="1439.6" height="24.65" shape-rendering="crispEdges"/><rect fill="#0e1830" x="1451.8" y="367.5" width="12.2" height="24.65" shape-rendering="crispEdges"/><rect fill="#0e1830" x="0" y="391.9" width="12.2" height="24.65" shape-rendering="crispEdges"/><rect fill="#0e1830" x="12.2" y="391.9" width="1439.6" height="24.65" shape-rendering="crispEdges"/><rect fill="#0e1830" x="1451.8" y="391.9" width="12.2" height="24.65" shape-rendering="crispEdges"/><rect fill="#0e1830" x="0" y="416.3" width="12.2" height="24.65" shape-rendering="crispEdges"/><rect fill="#0e1830" x="12.2" y="416.3" width="1439.6" height="24.65" shape-rendering="crispEdges"/><rect fill="#0e1830" x="1451.8" y="416.3" width="12.2" height="24.65" shape-rendering="crispEdges"/><rect fill="#0e1830" x="0" y="440.7" width="12.2" height="24.65" shape-rendering="crispEdges"/><rect fill="#0e1830" x="12.2" y="440.7" width="1439.6" height="24.65" shape-rendering="crispEdges"/><rect fill="#0e1830" x="1451.8" y="440.7" width="12.2" height="24.65" shape-rendering="crispEdges"/><rect fill="#0e1830" x="0" y="465.1" width="12.2" height="24.65" shape-rendering="crispEdges"/><rect fill="#0e1830" x="12.2" y="465.1" width="1439.6" height="24.65" shape-rendering="crispEdges"/><rect fill="#0e1830" x="1451.8" y="465.1" width="12.2" height="24.65" shape-rendering="crispEdges"/><rect fill="#0e1830" x="0" y="489.5" width="12.2" height="24.65" shape-rendering="crispEdges"/><rect fill="#0e1830" x="12.2" y="489.5" width="1439.6" height="24.65" shape-rendering="crispEdges"/><rect fill="#0e1830" x="1451.8" y="489.5" width="12.2" height="24.65" shape-rendering="crispEdges"/><rect fill="#0e1830" x="0" y="513.9" width="12.2" height="24.65" shape-rendering="crispEdges"/><rect fill="#0e1830" x="12.2" y="513.9" width="1439.6" height="24.65" shape-rendering="crispEdges"/><rect fill="#0e1830" x="1451.8" y="513.9" width="12.2" height="24.65" shape-rendering="crispEdges"/><rect fill="#0e1830" x="0" y="538.3" width="12.2" height="24.65" shape-rendering="crispEdges"/><rect fill="#0e1830" x="12.2" y="538.3" width="475.8" height="24.65" shape-rendering="crispEdges"/><rect fill="#0e1830" x="488" y="538.3" width="963.8" height="24.65" shape-rendering="crispEdges"/><rect fill="#0e1830" x="1451.8" y="538.3" width="12.2" height="24.65" shape-rendering="crispEdges"/><rect fill="#0e1830" x="0" y="562.7" width="12.2" height="24.65" shape-rendering="crispEdges"/><rect fill="#0e1830" x="12.2" y="562.7" width="1439.6" height="24.65" shape-rendering="crispEdges"/><rect fill="#0e1830" x="1451.8" y="562.7" width="12.2" height="24.65" shape-rendering="crispEdges"/><rect fill="#0e1830" x="0" y="587.1" width="12.2" height="24.65" shape-rendering="crispEdges"/><rect fill="#0e1830" x="12.2" y="587.1" width="24.4" height="24.65" shape-rendering="crispEdges"/><rect fill="#0e1830" x="36.6" y="587.1" width="854" height="24.65" shape-rendering="crispEdges"/><rect fill="#0e1830" x="890.6" y="587.1" width="536.8" height="24.65" shape-rendering="crispEdges"/><rect fill="#0e1830" x="1427.4" y="587.1" width="24.4" height="24.65" shape-rendering="crispEdges"/><rect fill="#0e1830" x="1451.8" y="587.1" width="12.2" height="24.65" shape-rendering="crispEdges"/><rect fill="#0e1830" x="0" y="611.5" width="12.2" height="24.65" shape-rendering="crispEdges"/><rect fill="#0e1830" x="12.2" y="611.5" width="24.4" height="24.65" shape-rendering="crispEdges"/><rect fill="#0e1830" x="36.6" y="611.5" width="1390.8" height="24.65" shape-rendering="crispEdges"/><rect fill="#0e1830" x="1427.4" y="611.5" width="24.4" height="24.65" shape-rendering="crispEdges"/><rect fill="#0e1830" x="1451.8" y="611.5" width="12.2" height="24.65" shape-rendering="crispEdges"/><rect fill="#0e1830" x="0" y="635.9" width="12.2" height="24.65" shape-rendering="crispEdges"/><rect fill="#0e1830" x="12.2" y="635.9" width="1439.6" height="24.65" shape-rendering="crispEdges"/><rect fill="#0e1830" x="1451.8" y="635.9" width="12.2" height="24.65" shape-rendering="crispEdges"/><rect fill="#0e1830" x="0" y="660.3" width="12.2" height="24.65" shape-rendering="crispEdges"/><rect fill="#0e1830" x="12.2" y="660.3" width="12.2" height="24.65" shape-rendering="crispEdges"/><rect fill="#0e1830" x="24.4" y="660.3" width="12.2" height="24.65" shape-rendering="crispEdges"/><rect fill="#0e1830" x="36.6" y="660.3" width="866.2" height="24.65" shape-rendering="crispEdges"/><rect fill="#0e1830" x="902.8" y="660.3" width="536.8" height="24.65" shape-rendering="crispEdges"/><rect fill="#0e1830" x="1439.6" y="660.3" width="12.2" height="24.65" shape-rendering="crispEdges"/><rect fill="#0e1830" x="1451.8" y="660.3" width="12.2" height="24.65" shape-rendering="crispEdges"/><rect fill="#0e1830" x="0" y="684.7" width="12.2" height="24.65" shape-rendering="crispEdges"/><rect fill="#0e1830" x="12.2" y="684.7" width="12.2" height="24.65" shape-rendering="crispEdges"/><rect fill="#0e1830" x="24.4" y="684.7" width="12.2" height="24.65" shape-rendering="crispEdges"/><rect fill="#0e1830" x="36.6" y="684.7" width="36.6" height="24.65" shape-rendering="crispEdges"/><rect fill="#0e1830" x="73.2" y="684.7" width="1366.4" height="24.65" shape-rendering="crispEdges"/><rect fill="#0e1830" x="1439.6" y="684.7" width="12.2" height="24.65" shape-rendering="crispEdges"/><rect fill="#0e1830" x="1451.8" y="684.7" width="12.2" height="24.65" shape-rendering="crispEdges"/><rect fill="#0e1830" x="0" y="709.1" width="12.2" height="24.65" shape-rendering="crispEdges"/><rect fill="#0e1830" x="12.2" y="709.1" width="12.2" height="24.65" shape-rendering="crispEdges"/><rect fill="#0e1830" x="24.4" y="709.1" width="12.2" height="24.65" shape-rendering="crispEdges"/><rect fill="#0e1830" x="36.6" y="709.1" width="0" height="24.65" shape-rendering="crispEdges"/><rect fill="#0e1830" x="36.6" y="709.1" width="1403" height="24.65" shape-rendering="crispEdges"/><rect fill="#0e1830" x="1439.6" y="709.1" width="12.2" height="24.65" shape-rendering="crispEdges"/><rect fill="#0e1830" x="1451.8" y="709.1" width="12.2" height="24.65" shape-rendering="crispEdges"/><rect fill="#0e1830" x="0" y="733.5" width="12.2" height="24.65" shape-rendering="crispEdges"/><rect fill="#0e1830" x="12.2" y="733.5" width="1439.6" height="24.65" shape-rendering="crispEdges"/><rect fill="#0e1830" x="1451.8" y="733.5" width="12.2" height="24.65" shape-rendering="crispEdges"/><rect fill="#15234a" x="0" y="757.9" width="1464" height="24.65" shape-rendering="crispEdges"/><rect fill="#15234a" x="0" y="782.3" width="12.2" height="24.65" shape-rendering="crispEdges"/><rect fill="#15234a" x="12.2" y="782.3" width="12.2" height="24.65" shape-rendering="crispEdges"/><rect fill="#15234a" x="24.4" y="782.3" width="12.2" height="24.65" shape-rendering="crispEdges"/><rect fill="#e0e0e0" x="36.6" y="782.3" width="12.2" height="24.65" shape-rendering="crispEdges"/><rect fill="#15234a" x="48.8" y="782.3" width="683.2" height="24.65" shape-rendering="crispEdges"/><rect fill="#15234a" x="732" y="782.3" width="695.4" height="24.65" shape-rendering="crispEdges"/><rect fill="#15234a" x="1427.4" y="782.3" width="12.2" height="24.65" shape-rendering="crispEdges"/><rect fill="#15234a" x="1439.6" y="782.3" width="12.2" height="24.65" shape-rendering="crispEdges"/><rect fill="#15234a" x="1451.8" y="782.3" width="12.2" height="24.65" shape-rendering="crispEdges"/><rect fill="#1c2d5e" x="0" y="806.7" width="12.2" height="24.65" shape-rendering="crispEdges"/><rect fill="#1c2d5e" x="12.2" y="806.7" width="24.4" height="24.65" shape-rendering="crispEdges"/><rect fill="#1c2d5e" x="36.6" y="806.7" width="61" height="24.65" shape-rendering="crispEdges"/><rect fill="#1c2d5e" x="97.6" y="806.7" width="61" height="24.65" shape-rendering="crispEdges"/><rect fill="#1c2d5e" x="158.6" y="806.7" width="12.2" height="24.65" shape-rendering="crispEdges"/><rect fill="#1c2d5e" x="170.8" y="806.7" width="24.4" height="24.65" shape-rendering="crispEdges"/><rect fill="#1c2d5e" x="195.2" y="806.7" width="61" height="24.65" shape-rendering="crispEdges"/><rect fill="#1c2d5e" x="256.2" y="806.7" width="61" height="24.65" shape-rendering="crispEdges"/><rect fill="#1c2d5e" x="317.2" y="806.7" width="12.2" height="24.65" shape-rendering="crispEdges"/><rect fill="#1c2d5e" x="329.4" y="806.7" width="24.4" height="24.65" shape-rendering="crispEdges"/><rect fill="#1c2d5e" x="353.8" y="806.7" width="61" height="24.65" shape-rendering="crispEdges"/><rect fill="#1c2d5e" x="414.8" y="806.7" width="256.2" height="24.65" shape-rendering="crispEdges"/><rect fill="#1c2d5e" x="671" y="806.7" width="12.2" height="24.65" shape-rendering="crispEdges"/><rect fill="#1c2d5e" x="683.2" y="806.7" width="109.8" height="24.65" shape-rendering="crispEdges"/><rect fill="#1c2d5e" x="793" y="806.7" width="12.2" height="24.65" shape-rendering="crispEdges"/><rect fill="#1c2d5e" x="805.2" y="806.7" width="24.4" height="24.65" shape-rendering="crispEdges"/><rect fill="#1c2d5e" x="829.6" y="806.7" width="61" height="24.65" shape-rendering="crispEdges"/><rect fill="#1c2d5e" x="890.6" y="806.7" width="61" height="24.65" shape-rendering="crispEdges"/><rect fill="#1c2d5e" x="951.6" y="806.7" width="12.2" height="24.65" shape-rendering="crispEdges"/><rect fill="#1c2d5e" x="963.8" y="806.7" width="24.4" height="24.65" shape-rendering="crispEdges"/><rect fill="#1c2d5e" x="988.2" y="806.7" width="48.8" height="24.65" shape-rendering="crispEdges"/><rect fill="#1c2d5e" x="1037" y="806.7" width="24.4" height="24.65" shape-rendering="crispEdges"/><rect fill="#1c2d5e" x="1061.4" y="806.7" width="12.2" height="24.65" shape-rendering="crispEdges"/><rect fill="#1c2d5e" x="1073.6" y="806.7" width="24.4" height="24.65" shape-rendering="crispEdges"/><rect fill="#1c2d5e" x="1098" y="806.7" width="61" height="24.65" shape-rendering="crispEdges"/><rect fill="#1c2d5e" x="1159" y="806.7" width="36.6" height="24.65" shape-rendering="crispEdges"/><rect fill="#1c2d5e" x="1195.6" y="806.7" width="12.2" height="24.65" shape-rendering="crispEdges"/><rect fill="#1c2d5e" x="1207.8" y="806.7" width="24.4" height="24.65" shape-rendering="crispEdges"/><rect fill="#1c2d5e" x="1232.2" y="806.7" width="61" height="24.65" shape-rendering="crispEdges"/><rect fill="#1c2d5e" x="1293.2" y="806.7" width="36.6" height="24.65" shape-rendering="crispEdges"/><rect fill="#1c2d5e" x="1329.8" y="806.7" width="12.2" height="24.65" shape-rendering="crispEdges"/><rect fill="#1c2d5e" x="1342" y="806.7" width="24.4" height="24.65" shape-rendering="crispEdges"/><rect fill="#1c2d5e" x="1366.4" y="806.7" width="61" height="24.65" shape-rendering="crispEdges"/><rect fill="#1c2d5e" x="1427.4" y="806.7" width="24.4" height="24.65" shape-rendering="crispEdges"/><rect fill="#1c2d5e" x="1451.8" y="806.7" width="12.2" height="24.65" shape-rendering="crispEdges"/><rect fill="#1c2d5e" x="0" y="831.1" width="12.2" height="24.65" shape-rendering="crispEdges"/><rect fill="#1c2d5e" x="12.2" y="831.1" width="12.2" height="24.65" shape-rendering="crispEdges"/><rect fill="#1c2d5e" x="24.4" y="831.1" width="109.8" height="24.65" shape-rendering="crispEdges"/><rect fill="#1c2d5e" x="134.2" y="831.1" width="24.4" height="24.65" shape-rendering="crispEdges"/><rect fill="#1c2d5e" x="158.6" y="831.1" width="12.2" height="24.65" shape-rendering="crispEdges"/><rect fill="#1c2d5e" x="170.8" y="831.1" width="12.2" height="24.65" shape-rendering="crispEdges"/><rect fill="#1c2d5e" x="183" y="831.1" width="48.8" height="24.65" shape-rendering="crispEdges"/><rect fill="#1c2d5e" x="231.8" y="831.1" width="36.6" height="24.65" shape-rendering="crispEdges"/><rect fill="#1c2d5e" x="268.4" y="831.1" width="36.6" height="24.65" shape-rendering="crispEdges"/><rect fill="#1c2d5e" x="305" y="831.1" width="12.2" height="24.65" shape-rendering="crispEdges"/><rect fill="#1c2d5e" x="317.2" y="831.1" width="12.2" height="24.65" shape-rendering="crispEdges"/><rect fill="#1c2d5e" x="329.4" y="831.1" width="12.2" height="24.65" shape-rendering="crispEdges"/><rect fill="#1c2d5e" x="341.6" y="831.1" width="24.4" height="24.65" shape-rendering="crispEdges"/><rect fill="#1c2d5e" x="366" y="831.1" width="292.8" height="24.65" shape-rendering="crispEdges"/><rect fill="#1c2d5e" x="658.8" y="831.1" width="12.2" height="24.65" shape-rendering="crispEdges"/><rect fill="#1c2d5e" x="671" y="831.1" width="12.2" height="24.65" shape-rendering="crispEdges"/><rect fill="#1c2d5e" x="683.2" y="831.1" width="12.2" height="24.65" shape-rendering="crispEdges"/><rect fill="#1c2d5e" x="695.4" y="831.1" width="85.4" height="24.65" shape-rendering="crispEdges"/><rect fill="#1c2d5e" x="780.8" y="831.1" width="12.2" height="24.65" shape-rendering="crispEdges"/><rect fill="#1c2d5e" x="793" y="831.1" width="12.2" height="24.65" shape-rendering="crispEdges"/><rect fill="#1c2d5e" x="805.2" y="831.1" width="12.2" height="24.65" shape-rendering="crispEdges"/><rect fill="#1c2d5e" x="817.4" y="831.1" width="85.4" height="24.65" shape-rendering="crispEdges"/><rect fill="#1c2d5e" x="902.8" y="831.1" width="48.8" height="24.65" shape-rendering="crispEdges"/><rect fill="#1c2d5e" x="951.6" y="831.1" width="12.2" height="24.65" shape-rendering="crispEdges"/><rect fill="#1c2d5e" x="963.8" y="831.1" width="12.2" height="24.65" shape-rendering="crispEdges"/><rect fill="#1c2d5e" x="976" y="831.1" width="48.8" height="24.65" shape-rendering="crispEdges"/><rect fill="#1c2d5e" x="1024.8" y="831.1" width="36.6" height="24.65" shape-rendering="crispEdges"/><rect fill="#1c2d5e" x="1061.4" y="831.1" width="12.2" height="24.65" shape-rendering="crispEdges"/><rect fill="#1c2d5e" x="1073.6" y="831.1" width="12.2" height="24.65" shape-rendering="crispEdges"/><rect fill="#1c2d5e" x="1085.8" y="831.1" width="36.6" height="24.65" shape-rendering="crispEdges"/><rect fill="#1c2d5e" x="1122.4" y="831.1" width="24.4" height="24.65" shape-rendering="crispEdges"/><rect fill="#1c2d5e" x="1146.8" y="831.1" width="48.8" height="24.65" shape-rendering="crispEdges"/><rect fill="#1c2d5e" x="1195.6" y="831.1" width="12.2" height="24.65" shape-rendering="crispEdges"/><rect fill="#1c2d5e" x="1207.8" y="831.1" width="12.2" height="24.65" shape-rendering="crispEdges"/><rect fill="#1c2d5e" x="1220" y="831.1" width="36.6" height="24.65" shape-rendering="crispEdges"/><rect fill="#1c2d5e" x="1256.6" y="831.1" width="24.4" height="24.65" shape-rendering="crispEdges"/><rect fill="#1c2d5e" x="1281" y="831.1" width="48.8" height="24.65" shape-rendering="crispEdges"/><rect fill="#1c2d5e" x="1329.8" y="831.1" width="12.2" height="24.65" shape-rendering="crispEdges"/><rect fill="#1c2d5e" x="1342" y="831.1" width="12.2" height="24.65" shape-rendering="crispEdges"/><rect fill="#1c2d5e" x="1354.2" y="831.1" width="24.4" height="24.65" shape-rendering="crispEdges"/><rect fill="#1c2d5e" x="1378.6" y="831.1" width="73.2" height="24.65" shape-rendering="crispEdges"/><rect fill="#1c2d5e" x="1451.8" y="831.1" width="12.2" height="24.65" shape-rendering="crispEdges"/><rect fill="#1c2d5e" x="0" y="855.5" width="24.4" height="24.65" shape-rendering="crispEdges"/><rect fill="#1c2d5e" x="24.4" y="855.5" width="12.2" height="24.65" shape-rendering="crispEdges"/><rect fill="#1c2d5e" x="36.6" y="855.5" width="244" height="24.65" shape-rendering="crispEdges"/><rect fill="#1c2d5e" x="280.6" y="855.5" width="36.6" height="24.65" shape-rendering="crispEdges"/><rect fill="#1c2d5e" x="317.2" y="855.5" width="85.4" height="24.65" shape-rendering="crispEdges"/><rect fill="#1c2d5e" x="402.6" y="855.5" width="36.6" height="24.65" shape-rendering="crispEdges"/><rect fill="#1c2d5e" x="439.2" y="855.5" width="48.8" height="24.65" shape-rendering="crispEdges"/><rect fill="#1c2d5e" x="488" y="855.5" width="36.6" height="24.65" shape-rendering="crispEdges"/><rect fill="#1c2d5e" x="524.6" y="855.5" width="231.8" height="24.65" shape-rendering="crispEdges"/><rect fill="#1c2d5e" x="756.4" y="855.5" width="36.6" height="24.65" shape-rendering="crispEdges"/><rect fill="#1c2d5e" x="793" y="855.5" width="97.6" height="24.65" shape-rendering="crispEdges"/><rect fill="#1c2d5e" x="890.6" y="855.5" width="36.6" height="24.65" shape-rendering="crispEdges"/><rect fill="#1c2d5e" x="927.2" y="855.5" width="219.6" height="24.65" shape-rendering="crispEdges"/><rect fill="#1c2d5e" x="1146.8" y="855.5" width="36.6" height="24.65" shape-rendering="crispEdges"/><rect fill="#1c2d5e" x="1183.4" y="855.5" width="85.4" height="24.65" shape-rendering="crispEdges"/><rect fill="#1c2d5e" x="1268.8" y="855.5" width="195.2" height="24.65" shape-rendering="crispEdges"/>
    <g class="terminal-0-matrix">
    <text class="terminal-0-r1" x="1464" y="20" textLength="12.2" clip-path="url(#terminal-0-line-0)">
</text><text class="terminal-0-r1" x="1464" y="44.4" textLength="12.2" clip-path="url(#terminal-0-line-1)">
</text><text class="terminal-0-r1" x="1464" y="68.8" textLength="12.2" clip-path="url(#terminal-0-line-2)">
</text><text class="terminal-0-r1" x="1464" y="93.2" textLength="12.2" clip-path="url(#terminal-0-line-3)">
</text><text class="terminal-0-r1" x="1464" y="117.6" textLength="12.2" clip-path="url(#terminal-0-line-4)">
</text><text class="terminal-0-r1" x="1464" y="142" textLength="12.2" clip-path="url(#terminal-0-line-5)">
</text><text class="terminal-0-r1" x="1464" y="166.4" textLength="12.2" clip-path="url(#terminal-0-line-6)">
</text><text class="terminal-0-r1" x="1464" y="190.8" textLength="12.2" clip-path="url(#terminal-0-line-7)">
</text><text class="terminal-0-r1" x="1464" y="215.2" textLength="12.2" clip-path="url(#terminal-0-line-8)">
</text><text class="terminal-0-r1" x="1464" y="239.6" textLength="12.2" clip-path="url(#terminal-0-line-9)">
</text><text class="terminal-0-r1" x="1464" y="264" textLength="12.2" clip-path="url(#terminal-0-line-10)">
</text><text class="terminal-0-r1" x="1464" y="288.4" textLength="12.2" clip-path="url(#terminal-0-line-11)">
</text><text class="terminal-0-r1" x="1464" y="312.8" textLength="12.2" clip-path="url(#terminal-0-line-12)">
</text><text class="terminal-0-r1" x="1464" y="337.2" textLength="12.2" clip-path="url(#terminal-0-line-13)">
</text><text class="terminal-0-r1" x="1464" y="361.6" textLength="12.2" clip-path="url(#terminal-0-line-14)">
</text><text class="terminal-0-r1" x="1464" y="386" textLength="12.2" clip-path="url(#terminal-0-line-15)">
</text><text class="terminal-0-r1" x="1464" y="410.4" textLength="12.2" clip-path="url(#terminal-0-line-16)">
</text><text class="terminal-0-r1" x="1464" y="434.8" textLength="12.2" clip-path="url(#terminal-0-line-17)">
</text><text class="terminal-0-r1" x="1464" y="459.2" textLength="12.2" clip-path="url(#terminal-0-line-18)">
</text><text class="terminal-0-r1" x="1464" y="483.6" textLength="12.2" clip-path="url(#terminal-0-line-19)">
</text><text class="terminal-0-r1" x="1464" y="508" textLength="12.2" clip-path="url(#terminal-0-line-20)">
</text><text class="terminal-0-r1" x="1464" y="532.4" textLength="12.2" clip-path="url(#terminal-0-line-21)">
</text><text class="terminal-0-r2" x="12.2" y="556.8" textLength="475.8" clip-path="url(#terminal-0-line-22)">❯&#160;Add&#160;a&#160;rotate&#160;tool&#160;to&#160;the&#160;model&#160;picker</text><text class="terminal-0-r1" x="1464" y="556.8" textLength="12.2" clip-path="url(#terminal-0-line-22)">
</text><text class="terminal-0-r1" x="1464" y="581.2" textLength="12.2" clip-path="url(#terminal-0-line-23)">
</text><text class="terminal-0-r3" x="36.6" y="605.6" textLength="854" clip-path="url(#terminal-0-line-24)">The&#160;sort&#160;keys&#160;live&#160;in&#160;the&#160;picker&#160;dialog,&#160;so&#160;the&#160;new&#160;column&#160;goes&#160;there.</text><text class="terminal-0-r1" x="1464" y="605.6" textLength="12.2" clip-path="url(#terminal-0-line-24)">
</text><text class="terminal-0-r1" x="1464" y="630" textLength="12.2" clip-path="url(#terminal-0-line-25)">
</text><text class="terminal-0-r1" x="1464" y="654.4" textLength="12.2" clip-path="url(#terminal-0-line-26)">
</text><text class="terminal-0-r4" x="12.2" y="678.8" textLength="12.2" clip-path="url(#terminal-0-line-27)">█</text><text class="terminal-0-r5" x="36.6" y="678.8" textLength="866.2" clip-path="url(#terminal-0-line-27)">⏺&#160;Read({&quot;file_path&quot;:&#160;&quot;halo_harness/tui/dialogs/model_picker.py&quot;})&#160;·&#160;4&#160;s</text><text class="terminal-0-r1" x="1464" y="678.8" textLength="12.2" clip-path="url(#terminal-0-line-27)">
</text><text class="terminal-0-r4" x="12.2" y="703.2" textLength="12.2" clip-path="url(#terminal-0-line-28)">█</text><text class="terminal-0-r5" x="36.6" y="703.2" textLength="36.6" clip-path="url(#terminal-0-line-28)">&#160;&#160;●</text><text class="terminal-0-r1" x="1464" y="703.2" textLength="12.2" clip-path="url(#terminal-0-line-28)">
</text><text class="terminal-0-r4" x="12.2" y="727.6" textLength="12.2" clip-path="url(#terminal-0-line-29)">█</text><text class="terminal-0-r1" x="1464" y="727.6" textLength="12.2" clip-path="url(#terminal-0-line-29)">
</text><text class="terminal-0-r1" x="1464" y="752" textLength="12.2" clip-path="url(#terminal-0-line-30)">
</text><text class="terminal-0-r6" x="0" y="776.4" textLength="1464" clip-path="url(#terminal-0-line-31)">▒▒▒▒▒▒▒▒▒▒▒▒▒▒▒▒▒▒▒▒▒▒▒▒▒▒▒▒▒▒▒▒▒▒▒▒▒▒▒▒▒▒▒▒▒▒▒▒▒▒▒▒▒▒▒▒▒▒▒▒▒▒▒▒▒▒▒▒▒▒▒▒▒▒▒▒▒▒▒▒▒▒▒▒▒▒▒▒▒▒▒▒▒▒▒▒▒▒▒▒▒▒▒▒▒▒▒▒▒▒▒▒▒▒▒▒▒▒▒▒</text><text class="terminal-0-r1" x="1464" y="776.4" textLength="12.2" clip-path="url(#terminal-0-line-31)">
</text><text class="terminal-0-r7" x="0" y="800.8" textLength="12.2" clip-path="url(#terminal-0-line-32)">╞</text><text class="terminal-0-r8" x="36.6" y="800.8" textLength="12.2" clip-path="url(#terminal-0-line-32)">T</text><text class="terminal-0-r9" x="48.8" y="800.8" textLength="683.2" clip-path="url(#terminal-0-line-32)">ip:&#160;/rewind&#160;restores&#160;the&#160;working&#160;tree&#160;to&#160;a&#160;recorded&#160;step</text><text class="terminal-0-r7" x="1439.6" y="800.8" textLength="12.2" clip-path="url(#terminal-0-line-32)">╡</text><text class="terminal-0-r1" x="1464" y="800.8" textLength="12.2" clip-path="url(#terminal-0-line-32)">
</text><text class="terminal-0-r10" x="0" y="825.2" textLength="12.2" clip-path="url(#terminal-0-line-33)">╔</text><text class="terminal-0-r10" x="12.2" y="825.2" textLength="24.4" clip-path="url(#terminal-0-line-33)">═&#160;</text><text class="terminal-0-r7" x="36.6" y="825.2" textLength="61" clip-path="url(#terminal-0-line-33)">SCORE</text><text class="terminal-0-r10" x="97.6" y="825.2" textLength="61" clip-path="url(#terminal-0-line-33)">&#160;════</text><text class="terminal-0-r10" x="158.6" y="825.2" textLength="12.2" clip-path="url(#terminal-0-line-33)">╦</text><text class="terminal-0-r10" x="170.8" y="825.2" textLength="24.4" clip-path="url(#terminal-0-line-33)">═&#160;</text><text class="terminal-0-r7" x="195.2" y="825.2" textLength="61" clip-path="url(#terminal-0-line-33)">POWER</text><text class="terminal-0-r10" x="256.2" y="825.2" textLength="61" clip-path="url(#terminal-0-line-33)">&#160;════</text><text class="terminal-0-r10" x="317.2" y="825.2" textLength="12.2" clip-path="url(#terminal-0-line-33)">╦</text><text class="terminal-0-r10" x="329.4" y="825.2" textLength="24.4" clip-path="url(#terminal-0-line-33)">═&#160;</text><text class="terminal-0-r7" x="353.8" y="825.2" textLength="61" clip-path="url(#terminal-0-line-33)">COINS</text><text class="terminal-0-r10" x="414.8" y="825.2" textLength="256.2" clip-path="url(#terminal-0-line-33)">&#160;════════════════════</text><text class="terminal-0-r10" x="671" y="825.2" textLength="12.2" clip-path="url(#terminal-0-line-33)">╦</text><text class="terminal-0-r10" x="683.2" y="825.2" textLength="109.8" clip-path="url(#terminal-0-line-33)">═════════</text><text class="terminal-0-r10" x="793" y="825.2" textLength="12.2" clip-path="url(#terminal-0-line-33)">╦</text><text class="terminal-0-r10" x="805.2" y="825.2" textLength="24.4" clip-path="url(#terminal-0-line-33)">═&#160;</text><text class="terminal-0-r7" x="829.6" y="825.2" textLength="61" clip-path="url(#terminal-0-line-33)">WORLD</text><text class="terminal-0-r10" x="890.6" y="825.2" textLength="61" clip-path="url(#terminal-0-line-33)">&#160;════</text><text class="terminal-0-r10" x="951.6" y="825.2" textLength="12.2" clip-path="url(#terminal-0-line-33)">╦</text><text class="terminal-0-r10" x="963.8" y="825.2" textLength="24.4" clip-path="url(#terminal-0-line-33)">═&#160;</text><text class="terminal-0-r7" x="988.2" y="825.2" textLength="48.8" clip-path="url(#terminal-0-line-33)">TIME</text><text class="terminal-0-r10" x="1037" y="825.2" textLength="24.4" clip-path="url(#terminal-0-line-33)">&#160;═</text><text class="terminal-0-r10" x="1061.4" y="825.2" textLength="12.2" clip-path="url(#terminal-0-line-33)">╦</text><text class="terminal-0-r10" x="1073.6" y="825.2" textLength="24.4" clip-path="url(#terminal-0-line-33)">═&#160;</text><text class="terminal-0-r7" x="1098" y="825.2" textLength="61" clip-path="url(#terminal-0-line-33)">TURNS</text><text class="terminal-0-r10" x="1159" y="825.2" textLength="36.6" clip-path="url(#terminal-0-line-33)">&#160;══</text><text class="terminal-0-r10" x="1195.6" y="825.2" textLength="12.2" clip-path="url(#terminal-0-line-33)">╦</text><text class="terminal-0-r10" x="1207.8" y="825.2" textLength="24.4" clip-path="url(#terminal-0-line-33)">═&#160;</text><text class="terminal-0-r7" x="1232.2" y="825.2" textLength="61" clip-path="url(#terminal-0-line-33)">TOOLS</text><text class="terminal-0-r10" x="1293.2" y="825.2" textLength="36.6" clip-path="url(#terminal-0-line-33)">&#160;══</text><text class="terminal-0-r10" x="1329.8" y="825.2" textLength="12.2" clip-path="url(#terminal-0-line-33)">╦</text><text class="terminal-0-r10" x="1342" y="825.2" textLength="24.4" clip-path="url(#terminal-0-line-33)">═&#160;</text><text class="terminal-0-r7" x="1366.4" y="825.2" textLength="61" clip-path="url(#terminal-0-line-33)">PIPES</text><text class="terminal-0-r10" x="1427.4" y="825.2" textLength="24.4" clip-path="url(#terminal-0-line-33)">&#160;═</text><text class="terminal-0-r10" x="1451.8" y="825.2" textLength="12.2" clip-path="url(#terminal-0-line-33)">╗</text><text class="terminal-0-r1" x="1464" y="825.2" textLength="12.2" clip-path="url(#terminal-0-line-33)">
</text><text class="terminal-0-r10" x="0" y="849.6" textLength="12.2" clip-path="url(#terminal-0-line-34)">║</text><text class="terminal-0-r11" x="24.4" y="849.6" textLength="109.8" clip-path="url(#terminal-0-line-34)">688k&#160;left</text><text class="terminal-0-r10" x="158.6" y="849.6" textLength="12.2" clip-path="url(#terminal-0-line-34)">║</text><text class="terminal-0-r11" x="183" y="849.6" textLength="48.8" clip-path="url(#terminal-0-line-34)">████</text><text class="terminal-0-r12" x="231.8" y="849.6" textLength="36.6" clip-path="url(#terminal-0-line-34)">▒▒&#160;</text><text class="terminal-0-r11" x="268.4" y="849.6" textLength="36.6" clip-path="url(#terminal-0-line-34)">69%</text><text class="terminal-0-r10" x="317.2" y="849.6" textLength="12.2" clip-path="url(#terminal-0-line-34)">║</text><text class="terminal-0-r4" x="341.6" y="849.6" textLength="24.4" clip-path="url(#terminal-0-line-34)">●&#160;</text><text class="terminal-0-r3" x="366" y="849.6" textLength="292.8" clip-path="url(#terminal-0-line-34)">$0.0412&#160;·&#160;OR&#160;$12.40&#160;left</text><text class="terminal-0-r10" x="671" y="849.6" textLength="12.2" clip-path="url(#terminal-0-line-34)">║</text><text class="terminal-0-r11" x="695.4" y="849.6" textLength="85.4" clip-path="url(#terminal-0-line-34)">▐&#x27;^~^&#x27;▌</text><text class="terminal-0-r10" x="793" y="849.6" textLength="12.2" clip-path="url(#terminal-0-line-34)">║</text><text class="terminal-0-r13" x="817.4" y="849.6" textLength="85.4" clip-path="url(#terminal-0-line-34)">project</text><text class="terminal-0-r10" x="951.6" y="849.6" textLength="12.2" clip-path="url(#terminal-0-line-34)">║</text><text class="terminal-0-r4" x="976" y="849.6" textLength="48.8" clip-path="url(#terminal-0-line-34)">0:23</text><text class="terminal-0-r10" x="1061.4" y="849.6" textLength="12.2" clip-path="url(#terminal-0-line-34)">║</text><text class="terminal-0-r4" x="1085.8" y="849.6" textLength="36.6" clip-path="url(#terminal-0-line-34)">♥×&#160;</text><text class="terminal-0-r3" x="1122.4" y="849.6" textLength="24.4" clip-path="url(#terminal-0-line-34)">01</text><text class="terminal-0-r10" x="1195.6" y="849.6" textLength="12.2" clip-path="url(#terminal-0-line-34)">║</text><text class="terminal-0-r4" x="1220" y="849.6" textLength="36.6" clip-path="url(#terminal-0-line-34)">★×&#160;</text><text class="terminal-0-r11" x="1256.6" y="849.6" textLength="24.4" clip-path="url(#terminal-0-line-34)">41</text><text class="terminal-0-r10" x="1329.8" y="849.6" textLength="12.2" clip-path="url(#terminal-0-line-34)">║</text><text class="terminal-0-r11" x="1354.2" y="849.6" textLength="24.4" clip-path="url(#terminal-0-line-34)">or</text><text class="terminal-0-r10" x="1451.8" y="849.6" textLength="12.2" clip-path="url(#terminal-0-line-34)">║</text><text class="terminal-0-r1" x="1464" y="849.6" textLength="12.2" clip-path="url(#terminal-0-line-34)">
</text><text class="terminal-0-r10" x="0" y="874" textLength="24.4" clip-path="url(#terminal-0-line-35)">╚═</text><text class="terminal-0-r4" x="36.6" y="874" textLength="244" clip-path="url(#terminal-0-line-35)">⠋&#160;writing&#160;23&#160;s&#160;·&#160;↓12</text><text class="terminal-0-r10" x="280.6" y="874" textLength="36.6" clip-path="url(#terminal-0-line-35)">&#160;═&#160;</text><text class="terminal-0-r3" x="317.2" y="874" textLength="73.2" clip-path="url(#terminal-0-line-35)">⏩&#160;auto</text><text class="terminal-0-r10" x="402.6" y="874" textLength="36.6" clip-path="url(#terminal-0-line-35)">&#160;═&#160;</text><text class="terminal-0-r3" x="439.2" y="874" textLength="48.8" clip-path="url(#terminal-0-line-35)">high</text><text class="terminal-0-r10" x="488" y="874" textLength="36.6" clip-path="url(#terminal-0-line-35)">&#160;═&#160;</text><text class="terminal-0-r3" x="524.6" y="874" textLength="231.8" clip-path="url(#terminal-0-line-35)">▸&#160;or:demo/atlas-pro</text><text class="terminal-0-r10" x="756.4" y="874" textLength="36.6" clip-path="url(#terminal-0-line-35)">&#160;═&#160;</text><text class="terminal-0-r3" x="793" y="874" textLength="97.6" clip-path="url(#terminal-0-line-35)">agents&#160;2</text><text class="terminal-0-r10" x="890.6" y="874" textLength="36.6" clip-path="url(#terminal-0-line-35)">&#160;═&#160;</text><text class="terminal-0-r13" x="927.2" y="874" textLength="219.6" clip-path="url(#terminal-0-line-35)">⌂&#160;~/project&#160;(main)</text><text class="terminal-0-r10" x="1146.8" y="874" textLength="36.6" clip-path="url(#terminal-0-line-35)">&#160;═&#160;</text><text class="terminal-0-r11" x="1183.4" y="874" textLength="85.4" clip-path="url(#terminal-0-line-35)">MCP&#160;3/3</text><text class="terminal-0-r10" x="1268.8" y="874" textLength="195.2" clip-path="url(#terminal-0-line-35)">&#160;══════════════╝</text>
    </g>
    </g>
</svg>
